<?xml version="1.0" encoding="UTF-8"?>
<svg version="1.1" xmlns="http://www.w3.org/2000/svg" width="229" height="197">
<path d="M0 0 C1.23060421 2.46120841 1.2057723 4.25776866 1.31640625 7.0078125 C1.35830078 7.99394531 1.40019531 8.98007812 1.44335938 9.99609375 C1.48267578 11.02863281 1.52199219 12.06117187 1.5625 13.125 C1.60568359 14.16527344 1.64886719 15.20554687 1.69335938 16.27734375 C1.7996288 18.85142528 1.90166583 21.42560508 2 24 C2.92941406 23.4225 3.85882813 22.845 4.81640625 22.25 C6.06462011 21.49919467 7.31334562 20.7492395 8.5625 20 C9.17158203 19.6184375 9.78066406 19.236875 10.40820312 18.84375 C14.7018468 16.29936856 17.88040481 15.29123033 23 16 C26.17689703 20.76534554 25.41053104 26.19591995 25.42553711 31.76904297 C25.43742358 33.86154659 25.48659872 35.95108847 25.53710938 38.04296875 C25.54657584 39.380194 25.55380981 40.7174373 25.55859375 42.0546875 C25.57877563 43.87202393 25.57877563 43.87202393 25.59936523 45.72607422 C24.82554312 49.95293962 23.28930141 51.316291 20 54 C17.80615234 55.49462891 17.80615234 55.49462891 15.5859375 56.7265625 C14.75094727 57.19602295 13.91595703 57.6654834 13.05566406 58.14916992 C12.17104492 58.63619385 11.28642578 59.12321777 10.375 59.625 C8.5022925 60.6752257 6.62990411 61.72602058 4.7578125 62.77734375 C3.80680664 63.30827637 2.85580078 63.83920898 1.87597656 64.38623047 C-2.6886667 66.94754558 -7.22037447 69.56490173 -11.75 72.1875 C-12.56549316 72.65687988 -13.38098633 73.12625977 -14.22119141 73.60986328 C-14.96804199 74.04153809 -15.71489258 74.47321289 -16.484375 74.91796875 C-17.14147461 75.29719482 -17.79857422 75.6764209 -18.47558594 76.06713867 C-19.99042257 76.91240631 -19.99042257 76.91240631 -21 78 C-21.07226502 79.85287502 -21.0838122 81.70833878 -21.0625 83.5625 C-21.05347656 84.57441406 -21.04445312 85.58632812 -21.03515625 86.62890625 C-21.02355469 87.41136719 -21.01195312 88.19382812 -21 89 C-15.74779366 89 -10.06682504 85.01254622 -5.6640625 82.4609375 C-5.09924164 82.13461334 -4.53442078 81.80828918 -3.95248413 81.47207642 C-2.77340686 80.78986783 -1.59540406 80.10579902 -0.41845703 79.41992188 C1.38912881 78.36676813 3.20011606 77.3196637 5.01171875 76.2734375 C10.29509531 73.53636879 10.29509531 73.53636879 15 70 C20.8410596 69.62913907 20.8410596 69.62913907 23 70 C25.0140956 73.0211434 25.26836596 73.80660017 25.4140625 77.23046875 C25.45273438 78.03291016 25.49140625 78.83535156 25.53125 79.66210938 C25.5621875 80.49548828 25.593125 81.32886719 25.625 82.1875 C25.66367188 83.03248047 25.70234375 83.87746094 25.7421875 84.74804688 C25.83636279 86.83167524 25.91926675 88.91580753 26 91 C27.98025639 89.85605098 29.95917678 88.70978896 31.9375 87.5625 C33.03964844 86.92441406 34.14179688 86.28632812 35.27734375 85.62890625 C37.8283571 84.25289773 37.8283571 84.25289773 39 83 C41.33297433 82.95907063 43.66705225 82.95758277 46 83 C47.66674321 85.91824244 48.2432008 87.97594379 48.1953125 91.328125 C48.18564453 92.52695313 48.18564453 92.52695313 48.17578125 93.75 C48.15064453 94.9875 48.15064453 94.9875 48.125 96.25 C48.11597656 97.09046875 48.10695312 97.9309375 48.09765625 98.796875 C48.07415817 100.86470604 48.03828908 102.93238995 48 105 C49.68800555 104.08426462 51.37537641 103.16735926 53.0625 102.25 C54.06667969 101.70730469 55.07085937 101.16460937 56.10546875 100.60546875 C58.41846501 99.3225518 60.6412154 97.97409337 62.875 96.5625 C66 95 66 95 68.8125 95.1875 C71 96 71 96 73 97 C73.1984891 101.87443429 73.34324943 106.74649605 73.43945312 111.62402344 C73.47956774 113.28101589 73.53407796 114.93772718 73.60351562 116.59375 C74.16441303 130.31923934 74.16441303 130.31923934 71.37915039 134.33959961 C69.31486844 135.91132713 67.37550992 136.97099756 65 138 C64.04996094 138.59425781 63.09992188 139.18851563 62.12109375 139.80078125 C60.79271484 140.54908203 60.79271484 140.54908203 59.4375 141.3125 C54.7294375 143.99942456 50.07349757 146.75427936 45.4375 149.5625 C40.3347621 152.6399244 35.18788937 155.58963458 29.9375 158.41015625 C26.29189896 160.38324086 22.67615294 162.40664824 19.0625 164.4375 C18.38018311 164.81898193 17.69786621 165.20046387 16.99487305 165.59350586 C13.80118746 167.38683331 10.6342499 169.20512474 7.51953125 171.1328125 C6.48183594 171.76960937 5.44414062 172.40640625 4.375 173.0625 C3.02535156 173.91521484 3.02535156 173.91521484 1.6484375 174.78515625 C-1.70395994 176.32290788 -3.32896073 176.57524658 -7 176 C-10.36294268 174.50436938 -13.47425637 172.64585293 -16.625 170.75 C-17.99966431 169.9444165 -17.99966431 169.9444165 -19.40209961 169.12255859 C-26.67017984 164.8479493 -33.87677059 160.46772118 -41.08569336 156.09423828 C-46.43988173 152.86724723 -51.83562528 149.99293991 -57.47265625 147.2890625 C-60.75784309 145.61346488 -63.7367074 143.61709541 -66.76171875 141.515625 C-70.05850529 139.28324598 -73.49380771 137.29937955 -76.93359375 135.296875 C-79 134 -79 134 -81 132 C-81.20912465 129.22047737 -81.2936421 126.53977893 -81.29052734 123.75830078 C-81.29724457 122.90611969 -81.30396179 122.0539386 -81.31088257 121.17593384 C-81.32993455 118.34900131 -81.33379047 115.5223053 -81.3359375 112.6953125 C-81.34236077 110.73477072 -81.34908877 108.77422992 -81.35610962 106.81369019 C-81.36810065 102.69950132 -81.3717886 98.58539653 -81.37060547 94.47119141 C-81.37040226 89.19598114 -81.39769875 83.92130948 -81.43214989 78.64622688 C-81.45437503 74.59534219 -81.45844435 70.54458796 -81.45738602 66.49364853 C-81.45974881 64.54875712 -81.46861034 62.60386247 -81.48405075 60.65903091 C-81.50362084 57.93913208 -81.49790816 55.22040551 -81.48583984 52.50048828 C-81.49707886 51.69514648 -81.50831787 50.88980469 -81.51989746 50.06005859 C-81.47918039 46.45354274 -81.33333861 44.42875089 -79.08529663 41.5372467 C-77.17336305 40.12780042 -75.42488602 39.02826942 -73.265625 38.05078125 C-68.93934945 35.99870189 -64.85946497 33.64024477 -60.75 31.1875 C-60.0163623 30.7538916 -59.28272461 30.3202832 -58.52685547 29.87353516 C-55.12140418 27.8605813 -51.7236905 25.83555696 -48.3359375 23.79296875 C-47.27632812 23.16003906 -46.21671875 22.52710937 -45.125 21.875 C-44.19945312 21.31554687 -43.27390625 20.75609375 -42.3203125 20.1796875 C-40 19 -40 19 -37 19 C-37 18.34 -37 17.68 -37 17 C-36.21625 16.62875 -35.4325 16.2575 -34.625 15.875 C-31.76453927 14.44811912 -29.04392152 12.84726332 -26.3125 11.1875 C-21.734211 8.40584259 -17.07019364 5.82462163 -12.34765625 3.296875 C-7.62285216 0.68683347 -5.53176196 -0.20874573 0 0 Z M-13.8046875 16.23828125 C-15.00629517 16.9653125 -15.00629517 16.9653125 -16.23217773 17.70703125 C-17.10430908 18.23683594 -17.97644043 18.76664063 -18.875 19.3125 C-25.69747601 23.43099424 -32.53760887 27.51241961 -39.4375 31.5 C-40.57783691 32.15983887 -40.57783691 32.15983887 -41.74121094 32.83300781 C-46.08870005 35.34138388 -50.45102642 37.8218623 -54.82421875 40.28515625 C-55.79109619 40.83171875 -56.75797363 41.37828125 -57.75415039 41.94140625 C-59.63735231 43.00480116 -61.52318055 44.06356121 -63.41186523 45.1171875 C-64.68139038 45.83455078 -64.68139038 45.83455078 -65.9765625 46.56640625 C-66.73018066 46.98865479 -67.48379883 47.41090332 -68.26025391 47.84594727 C-70.15495297 48.89479176 -70.15495297 48.89479176 -71 51 C-71.15083382 53.34547179 -71.23561719 55.69526968 -71.29150391 58.04492188 C-71.30920334 58.77042236 -71.32690277 59.49592285 -71.34513855 60.2434082 C-71.49515524 66.95261825 -71.54844997 73.66291398 -71.57178688 80.3736496 C-71.58889266 84.87972665 -71.63801223 89.38032479 -71.76464844 93.88476562 C-73.17686482 112.40937368 -73.17686482 112.40937368 -68.33944702 129.66833496 C-64.11412639 133.86494882 -58.96329056 136.46423225 -53 137 C-48.33451953 136.09940599 -45.72170853 133.87960543 -42 131 C-39.04806945 129.26452823 -36.02073708 127.67438511 -33 126.0625 C-27.0184438 122.7662388 -21.20824499 119.29950052 -15.484375 115.5703125 C-12.11675198 113.44172059 -8.63674285 111.56587408 -5.125 109.6875 C-1.16075508 107.54680775 2.76334 105.33809652 6.6875 103.125 C7.40768311 102.71910645 8.12786621 102.31321289 8.86987305 101.89501953 C10.58025426 100.93061381 12.29017727 99.96539552 14 99 C14 94.05 14 89.1 14 84 C7.25614539 87.66094964 0.5283973 91.35053613 -6.1875 95.0625 C-6.93499512 95.4735498 -7.68249023 95.88459961 -8.45263672 96.30810547 C-12.78545183 98.70800945 -17.00847733 101.22876886 -21.19360352 103.87719727 C-23.53560988 105.33291929 -25.93970505 106.64492037 -28.375 107.9375 C-34.74028597 111.36837141 -40.98199815 114.98799877 -47 119 C-49.04296875 119.1953125 -49.04296875 119.1953125 -51.1875 119.125 C-52.445625 119.08375 -53.70375 119.0425 -55 119 C-55.23231591 111.29864866 -55.40968539 103.59766275 -55.51812172 95.89359951 C-55.57018722 92.31541634 -55.64070884 88.7396396 -55.75439453 85.1628418 C-55.86355076 81.70667743 -55.92293618 78.25281673 -55.94877243 74.79506111 C-55.97608199 72.84294101 -56.05407906 70.89174149 -56.13296509 68.94102478 C-56.13844132 60.23545248 -56.13844132 60.23545248 -52.86143494 56.67919922 C-50.31110743 54.86627562 -47.79400724 53.40186715 -45 52 C-43.53513419 51.15296314 -42.07238333 50.30223981 -40.61328125 49.4453125 C-39.18246094 48.66675624 -37.7488141 47.89337387 -36.3125 47.125 C-29.66287205 43.50666537 -23.12884001 39.75001907 -16.68286133 35.77978516 C-14.12999371 34.21864559 -11.85212241 32.95070747 -9 32 C-9 26.06 -9 20.12 -9 14 C-10.81875077 14 -12.28926102 15.3169143 -13.8046875 16.23828125 Z M3.34179688 36.09375 C-0.68511768 38.6457555 -4.7327201 40.91976498 -9.01928711 43.00341797 C-12.44552128 44.72730406 -15.71162827 46.71673461 -19 48.6875 C-25.63955812 52.63492479 -32.33105223 56.47282965 -39.0859375 60.21948242 C-42.23365053 61.84221636 -42.23365053 61.84221636 -45 64 C-45.08871273 67.02977804 -45.1151935 70.03667022 -45.09765625 73.06640625 C-45.0962413 73.97502914 -45.09482635 74.88365204 -45.09336853 75.81980896 C-45.08775193 78.73407221 -45.07519665 81.64825981 -45.0625 84.5625 C-45.05748714 86.53320202 -45.05292386 88.50390524 -45.04882812 90.47460938 C-45.03777711 95.31643559 -45.02050138 100.15820495 -45 105 C-38.00104251 102.33405145 -38.00104251 102.33405145 -32 98 C-31.96394236 96.06931154 -31.98725651 94.13746222 -32.03515625 92.20703125 C-32.03999023 90.42522461 -32.03999023 90.42522461 -32.04492188 88.60742188 C-32.05655206 86.09659455 -32.1029028 83.58566566 -32.18554688 81.07617188 C-32.12266261 72.11274578 -32.12266261 72.11274578 -28.87182617 68.890625 C-26.29953072 67.34005683 -23.77284284 66.14639431 -21 65 C-19.38701301 64.14136815 -17.7815261 63.26834007 -16.1875 62.375 C-15.29417969 61.89289063 -14.40085937 61.41078125 -13.48046875 60.9140625 C-8.62450032 58.24355236 -3.81234677 55.49816654 1 52.75 C2.39955933 51.95215088 2.39955933 51.95215088 3.82739258 51.13818359 C4.70935303 50.63367676 5.59131348 50.12916992 6.5 49.609375 C7.69109375 48.9282666 7.69109375 48.9282666 8.90625 48.23339844 C10.63905209 47.2126293 12.32665341 46.11556439 14 45 C14.22137393 42.37302936 14.28162025 39.99106036 14.1875 37.375 C14.17396484 36.66859375 14.16042969 35.9621875 14.14648438 35.234375 C14.1111104 33.48925872 14.05730221 31.74453392 14 30 C10.85320152 30 6.07173882 34.34333056 3.34179688 36.09375 Z M27.9375 102.1875 C26.56187544 103.02585232 25.18557698 103.8630999 23.80859375 104.69921875 C23.14585449 105.10188965 22.48311523 105.50456055 21.80029297 105.91943359 C19.72664119 107.1640746 17.62514271 108.34565185 15.5 109.5 C10.80428537 112.06049345 6.25063368 114.84711429 1.67700195 117.61743164 C-3.11128788 120.50348268 -7.97411032 123.21063187 -12.92578125 125.80859375 C-15.12686757 126.95288944 -15.12686757 126.95288944 -17 129 C-15.30397484 130.04115423 -13.59251063 131.05718378 -11.875 132.0625 C-10.92367187 132.63097656 -9.97234375 133.19945312 -8.9921875 133.78515625 C-5.39993494 135.24362955 -3.69166122 135.06537874 0 134 C2.2858329 132.94112906 2.2858329 132.94112906 4.4375 131.5 C5.2934375 130.96375 6.149375 130.4275 7.03125 129.875 C8.0109375 129.25625 8.990625 128.6375 10 128 C12.47149008 126.48718208 14.95352052 124.99220287 17.4375 123.5 C18.07502197 123.11585938 18.71254395 122.73171875 19.36938477 122.3359375 C24.18218105 119.45083571 29.06686892 116.72555632 34.0234375 114.09375 C35.94000691 113.15210497 35.94000691 113.15210497 37 112 C37.07271741 109.64686445 37.08370868 107.29166332 37.0625 104.9375 C37.05347656 103.64714844 37.04445312 102.35679688 37.03515625 101.02734375 C37.02355469 100.02832031 37.01195312 99.02929688 37 98 C33.54778643 98 30.80919966 100.41429516 27.9375 102.1875 Z M55.56640625 113.0703125 C54.44169922 113.72 53.31699219 114.3696875 52.15820312 115.0390625 C51.27080444 115.55388184 51.27080444 115.55388184 50.36547852 116.07910156 C48.60237145 117.10187078 46.83751247 118.12155438 45.07226562 119.140625 C39.05597893 122.62140346 33.06351732 126.13538299 27.11962891 129.73852539 C24.32586381 131.40120499 21.47694642 132.95125908 18.62109375 134.50390625 C16.49361576 135.71824913 14.42128358 136.97529868 12.34765625 138.27734375 C11.69369873 138.68364014 11.03974121 139.08993652 10.3659668 139.50854492 C9.06819992 140.31775946 7.77632279 141.13652121 6.49145508 141.96606445 C2.36220499 144.52763263 -1.02042991 145.89625896 -6 146 C-8.7734375 144.9609375 -8.7734375 144.9609375 -11.375 143.375 C-12.31214844 142.82457031 -13.24929687 142.27414063 -14.21484375 141.70703125 C-15.13394531 141.14371094 -16.05304688 140.58039063 -17 140 C-18.63907846 139.00956751 -20.28438115 138.0293158 -21.9375 137.0625 C-22.62714844 136.64097656 -23.31679687 136.21945313 -24.02734375 135.78515625 C-26.56348175 134.7757231 -27.46838676 135.01365718 -30 136 C-31.93904966 136.97764934 -33.85490842 138.00215114 -35.75 139.0625 C-36.73484375 139.61035156 -37.7196875 140.15820312 -38.734375 140.72265625 C-39.85585937 141.35494141 -39.85585937 141.35494141 -41 142 C-41 142.66 -41 143.32 -41 144 C-39.12691348 145.39429111 -39.12691348 145.39429111 -36.6875 146.75 C-35.77097656 147.28238281 -34.85445312 147.81476563 -33.91015625 148.36328125 C-30.25691952 150.41792043 -26.57858545 152.42256386 -22.890625 154.4140625 C-8.92215569 162.07784431 -8.92215569 162.07784431 -7 164 C-1.16480036 163.67012062 2.49062514 161.89363799 7.25 158.8125 C8.57575685 157.98526818 9.90258678 157.15975372 11.23046875 156.3359375 C11.87419434 155.93342773 12.51791992 155.53091797 13.18115234 155.11621094 C15.59571123 153.63441722 18.0662121 152.27624995 20.5625 150.9375 C26.49746188 147.75053083 32.33493369 144.40104825 38.17529297 141.04541016 C40.63365339 139.63696765 43.09824813 138.23968106 45.56469727 136.84545898 C46.76170394 136.16244681 47.95375067 135.47066013 49.14038086 134.76977539 C51.60620706 133.31615017 53.97872426 132.00813484 56.65625 130.984375 C59.12212356 129.9598219 60.28834936 129.03592708 62 127 C62.50313298 125.04271844 62.50313298 125.04271844 62.4765625 122.9140625 C62.49477051 122.14570068 62.51297852 121.37733887 62.53173828 120.58569336 C62.48481909 117.04040684 62.2805945 113.53471123 62 110 C59.80849637 110 57.36665756 112.02896698 55.56640625 113.0703125 Z " fill="#AA7ADE" transform="translate(124,12)"/>
<path d="M0 0 C1 2 1 2 1 6 C0.34 6 -0.32 6 -1 6 C-1 6.99 -1 7.98 -1 9 C-1.66 9 -2.32 9 -3 9 C-3 9.66 -3 10.32 -3 11 C-3.99 11 -4.98 11 -6 11 C-6 11.99 -6 12.98 -6 14 C-12.93 17.96 -19.86 21.92 -27 26 C-27.23138281 35.88499427 -27.39400718 45.7647103 -27.43784332 55.65235043 C-27.46090566 60.24453328 -27.51330153 64.83236585 -27.63427734 69.4230957 C-27.7500811 73.85947482 -27.786812 78.29030095 -27.7702179 82.72809029 C-27.777519 84.41520018 -27.81267228 86.10243985 -27.87687683 87.78834343 C-28.21216968 95.61233941 -28.21216968 95.61233941 -26 103 C-21.86498686 107.36906157 -15.88704008 110.71448387 -10 112 C-5.41491036 111.11990622 -2.6931888 108.77693967 1 106 C4.12218046 104.16759917 7.31240911 102.4654015 10.5 100.75 C12.05402042 99.89413283 13.60622342 99.03495418 15.15625 98.171875 C16.15881836 97.6164502 16.15881836 97.6164502 17.18164062 97.04980469 C18.82780516 96.09941432 20.41842591 95.05438272 22 94 C23.9375 93.515625 23.9375 93.515625 26 93.25 C26.680625 93.15203125 27.36125 93.0540625 28.0625 92.953125 C30 93 30 93 33 95 C34.1875 97.625 34.1875 97.625 35 100 C32.69 101.32 30.38 102.64 28 104 C30.03802135 108.06024321 30.03802135 108.06024321 34 110 C34 110.99 34 111.98 34 113 C33.34 113 32.68 113 32 113 C32 113.99 32 114.98 32 116 C27.65071317 115.20639131 23.5866257 113.92894361 19.40234375 112.5234375 C14.95927947 111.5553552 12.16667165 113.3369536 8.375 115.5625 C4.21813031 118 4.21813031 118 2 118 C2 118.66 2 119.32 2 120 C2.804375 120.20625 3.60875 120.4125 4.4375 120.625 C8.33115217 122.12781312 11.30036428 124.13226346 14.71484375 126.4921875 C17.34264612 128.22608787 20.03987224 129.57109319 22.875 130.92578125 C33.08921933 136.08921933 33.08921933 136.08921933 36 139 C37.75326456 138.93528218 39.50406454 138.79772624 41.25 138.625 C42.68085938 138.48964844 42.68085938 138.48964844 44.140625 138.3515625 C48.4600143 137.82049005 51.33215341 137.44523106 55 135 C55.33 134.34 55.66 133.68 56 133 C58.31104818 131.94952356 60.64583651 130.94992562 63 130 C63.66 129.67 64.32 129.34 65 129 C65 129.99 65 130.98 65 132 C65.66 131.67 66.32 131.34 67 131 C67 131.99 67 132.98 67 134 C66.34 134 65.68 134 65 134 C65 134.99 65 135.98 65 137 C61.125 138 61.125 138 60 138 C59.90936279 138.60682617 59.81872559 139.21365234 59.7253418 139.83886719 C58.38141064 143.84306732 54.31965031 145.2442482 50.8125 147.25 C50.05646484 147.70890625 49.30042969 148.1678125 48.52148438 148.640625 C41.00003104 153.02433414 41.00003104 153.02433414 36 152 C32.64425188 150.48678349 29.52665583 148.64640182 26.375 146.75 C25.00033569 145.9444165 25.00033569 145.9444165 23.59790039 145.12255859 C16.32982016 140.8479493 9.12322941 136.46772118 1.91430664 132.09423828 C-3.43988173 128.86724723 -8.83562528 125.99293991 -14.47265625 123.2890625 C-17.75784309 121.61346488 -20.7367074 119.61709541 -23.76171875 117.515625 C-27.05850529 115.28324598 -30.49380771 113.29937955 -33.93359375 111.296875 C-36 110 -36 110 -38 108 C-38.20912465 105.22047737 -38.2936421 102.53977893 -38.29052734 99.75830078 C-38.29724457 98.90611969 -38.30396179 98.0539386 -38.31088257 97.17593384 C-38.32993455 94.34900131 -38.33379047 91.5223053 -38.3359375 88.6953125 C-38.34236077 86.73477072 -38.34908877 84.77422992 -38.35610962 82.81369019 C-38.36810065 78.69950132 -38.3717886 74.58539653 -38.37060547 70.47119141 C-38.37040226 65.19598114 -38.39769875 59.92130948 -38.43214989 54.64622688 C-38.45437503 50.59534219 -38.45844435 46.54458796 -38.45738602 42.49364853 C-38.45974881 40.54875712 -38.46861034 38.60386247 -38.48405075 36.65903091 C-38.50362084 33.93913208 -38.49790816 31.22040551 -38.48583984 28.50048828 C-38.49707886 27.69514648 -38.50831787 26.88980469 -38.51989746 26.06005859 C-38.47914202 22.45014457 -38.33299188 20.42789936 -36.08145142 17.53463745 C-34.20038188 16.14773995 -32.50281885 15.07572757 -30.375 14.125 C-27.02402188 12.57408262 -24.071934 10.73388065 -21 8.6875 C-16.62998488 5.97461599 -16.62998488 5.97461599 -13.8671875 6.0859375 C-13.20976563 6.24320313 -12.55234375 6.40046875 -11.875 6.5625 C-8.09766491 7.40329917 -8.09766491 7.40329917 -5.7265625 5.53125 C-3.72262842 3.75935039 -1.82917736 1.9507982 0 0 Z " fill="#8647CC" transform="translate(81,36)"/>
<path d="M0 0 C1.23060421 2.46120841 1.2057723 4.25776866 1.31640625 7.0078125 C1.35830078 7.99394531 1.40019531 8.98007812 1.44335938 9.99609375 C1.48267578 11.02863281 1.52199219 12.06117187 1.5625 13.125 C1.60568359 14.16527344 1.64886719 15.20554687 1.69335938 16.27734375 C1.7996288 18.85142528 1.90166583 21.42560508 2 24 C2.92941406 23.4225 3.85882813 22.845 4.81640625 22.25 C6.06462011 21.49919467 7.31334562 20.7492395 8.5625 20 C9.17158203 19.6184375 9.78066406 19.236875 10.40820312 18.84375 C14.7018468 16.29936856 17.88040481 15.29123033 23 16 C26.17689703 20.76534554 25.41053104 26.19591995 25.42553711 31.76904297 C25.43742358 33.86154659 25.48659872 35.95108847 25.53710938 38.04296875 C25.54657584 39.380194 25.55380981 40.7174373 25.55859375 42.0546875 C25.57877563 43.87202393 25.57877563 43.87202393 25.59936523 45.72607422 C24.82554312 49.95293962 23.28930141 51.316291 20 54 C17.80615234 55.49462891 17.80615234 55.49462891 15.5859375 56.7265625 C14.75094727 57.19602295 13.91595703 57.6654834 13.05566406 58.14916992 C12.17104492 58.63619385 11.28642578 59.12321777 10.375 59.625 C8.5022925 60.6752257 6.62990411 61.72602058 4.7578125 62.77734375 C3.80680664 63.30827637 2.85580078 63.83920898 1.87597656 64.38623047 C-2.6886667 66.94754558 -7.22037447 69.56490173 -11.75 72.1875 C-12.56549316 72.65687988 -13.38098633 73.12625977 -14.22119141 73.60986328 C-14.96804199 74.04153809 -15.71489258 74.47321289 -16.484375 74.91796875 C-17.14147461 75.29719482 -17.79857422 75.6764209 -18.47558594 76.06713867 C-19.99042257 76.91240631 -19.99042257 76.91240631 -21 78 C-21.07258946 80.18639453 -21.08373783 82.37500389 -21.0625 84.5625 C-21.05347656 85.76003906 -21.04445312 86.95757812 -21.03515625 88.19140625 C-21.02355469 89.11824219 -21.01195312 90.04507813 -21 91 C-21.99 90.505 -21.99 90.505 -23 90 C-22.98839844 89.07316406 -22.97679687 88.14632812 -22.96484375 87.19140625 C-22.95582031 85.99386719 -22.94679687 84.79632813 -22.9375 83.5625 C-22.92589844 82.36753906 -22.91429687 81.17257813 -22.90234375 79.94140625 C-22.66098208 77.11126659 -22.66098208 77.11126659 -24 76 C-24 75.34 -24 74.68 -24 74 C-24.78375 74.474375 -25.5675 74.94875 -26.375 75.4375 C-27.88948678 76.33898023 -29.4235897 77.21179485 -31 78 C-31.33 75.69 -31.66 73.38 -32 71 C-25.53650119 66.86336076 -18.90373328 63.05399333 -12.23095703 59.26855469 C-9.6499478 57.80095521 -7.07283712 56.32663871 -4.49609375 54.8515625 C-3.54694092 54.30830322 -2.59778809 53.76504395 -1.61987305 53.20532227 C0.27592548 52.12009655 2.17159846 51.03465147 4.06713867 49.94897461 C4.93701416 49.45147705 5.80688965 48.95397949 6.703125 48.44140625 C7.48333008 47.99482666 8.26353516 47.54824707 9.06738281 47.08813477 C10.36068292 46.3599591 11.67248654 45.66375673 13 45 C13 40.38 13 35.76 13 31 C11.9378125 31.67546875 10.875625 32.3509375 9.78125 33.046875 C8.35429042 33.94811263 6.92720006 34.84914323 5.5 35.75 C4.45585937 36.41515625 4.45585937 36.41515625 3.390625 37.09375 C-0.65360389 39.64011634 -4.72533333 41.91331308 -9.02148438 44.00341797 C-13.2080346 46.11219117 -17.20650575 48.5743726 -21.1875 51.04516602 C-24.92894135 53.3344442 -28.4741186 55.26194462 -32.625 56.703125 C-39.18214055 59.13748261 -39.18214055 59.13748261 -44 64 C-46.25517662 72.75290427 -45.62065435 82.05752989 -45 91 C-45.66 91 -46.32 91 -47 91 C-47.01981934 90.16750732 -47.03963867 89.33501465 -47.06005859 88.47729492 C-47.13820742 85.385235 -47.22490206 82.29356617 -47.31738281 79.2019043 C-47.37444092 77.2070464 -47.42164442 75.2119146 -47.46875 73.21679688 C-47.50742188 71.96318359 -47.54609375 70.70957031 -47.5859375 69.41796875 C-47.6173584 68.26063232 -47.6487793 67.1032959 -47.68115234 65.91088867 C-47.79471033 62.80872972 -47.79471033 62.80872972 -50 60 C-48.515 59.505 -48.515 59.505 -47 59 C-47 59.66 -47 60.32 -47 61 C-46.34 61 -45.68 61 -45 61 C-44.67 59.35 -44.34 57.7 -44 56 C-45.65 56 -47.3 56 -49 56 C-49.33 56.99 -49.66 57.98 -50 59 C-50.99 59 -51.98 59 -53 59 C-53.85294775 62.75479132 -54.18379707 66.33011494 -54.31640625 70.17578125 C-54.37924805 71.91118164 -54.37924805 71.91118164 -54.44335938 73.68164062 C-54.48267578 74.87982422 -54.52199219 76.07800781 -54.5625 77.3125 C-54.60568359 78.53001953 -54.64886719 79.74753906 -54.69335938 81.00195312 C-54.79921496 84.0011947 -54.90129726 87.00051591 -55 90 C-55.33 90 -55.66 90 -56 90 C-56.19869296 85.6952406 -56.34333564 81.3929468 -56.43945312 77.08496094 C-56.47953636 75.62192275 -56.53402447 74.15920214 -56.60351562 72.69726562 C-57.15987386 60.68647324 -57.15987386 60.68647324 -54.53735352 56.87329102 C-52.44327799 55.25153561 -50.389217 54.13967555 -48 53 C-46.38079343 52.04074027 -44.76500682 51.07568881 -43.15234375 50.10546875 C-41.41701755 49.12755012 -39.67863158 48.15504467 -37.9375 47.1875 C-30.71143365 43.12785489 -23.54855372 39.00290701 -16.53100586 34.59057617 C-13.77163014 32.89155108 -12.3097157 32 -9 32 C-9.33 26.39 -9.66 20.78 -10 15 C-11.24652344 15.75023437 -12.49304688 16.50046875 -13.77734375 17.2734375 C-18.26199512 19.97042626 -22.7502451 22.66135657 -27.24072266 25.34863281 C-29.02218183 26.41479719 -30.80314283 27.48179462 -32.58349609 28.54980469 C-34.92793294 29.95451194 -37.27585551 31.35318366 -39.625 32.75 C-40.34034912 33.17974121 -41.05569824 33.60948242 -41.79272461 34.05224609 C-46.77078816 37 -46.77078816 37 -49 37 C-49 36.34 -49 35.68 -49 35 C-48.01 35 -47.02 35 -46 35 C-46 34.34 -46 33.68 -46 33 C-45.34 33 -44.68 33 -44 33 C-43.67 30.36 -43.34 27.72 -43 25 C-43.50789063 25.52851562 -44.01578125 26.05703125 -44.5390625 26.6015625 C-46.61719783 28.6174316 -48.57501823 30.4137664 -51 32 C-54.5 31.4375 -54.5 31.4375 -57 30 C-53.46144349 27.04902667 -49.84852207 24.58033625 -45.875 22.25 C-44.84117188 21.63640625 -43.80734375 21.0228125 -42.7421875 20.390625 C-40 19 -40 19 -37 19 C-37 18.34 -37 17.68 -37 17 C-35.824375 16.443125 -35.824375 16.443125 -34.625 15.875 C-31.76453927 14.44811912 -29.04392152 12.84726332 -26.3125 11.1875 C-21.734211 8.40584259 -17.07019364 5.82462163 -12.34765625 3.296875 C-7.62285216 0.68683347 -5.53176196 -0.20874573 0 0 Z " fill="#AD7CE2" transform="translate(124,12)"/>
<path d="M0 0 C1.65 0 3.3 0 5 0 C4.67 1.65 4.34 3.3 4 5 C3.01 5 2.02 5 1 5 C1.16298584 5.70213623 1.32597168 6.40427246 1.49389648 7.12768555 C2.02419552 10.13731803 2.11331957 12.90268462 2.09765625 15.95703125 C2.09443359 17.06884766 2.09121094 18.18066406 2.08789062 19.32617188 C2.07951172 20.47666016 2.07113281 21.62714844 2.0625 22.8125 C2.05798828 23.98232422 2.05347656 25.15214844 2.04882812 26.35742188 C2.0370693 29.23833358 2.02063426 32.11914044 2 35 C2.66 35 3.32 35 4 35 C4 39.62 4 44.24 4 49 C5.423125 48.21625 6.84625 47.4325 8.3125 46.625 C9.11300781 46.18414062 9.91351563 45.74328125 10.73828125 45.2890625 C12.53527943 44.26486665 14.27900708 43.14732862 16 42 C16.50904384 39.5842887 16.50904384 39.5842887 16.51171875 36.7734375 C16.54716797 35.7421875 16.58261719 34.7109375 16.61914062 33.6484375 C16.64169922 32.56820312 16.66425781 31.48796875 16.6875 30.375 C16.72166016 29.28703125 16.75582031 28.1990625 16.79101562 27.078125 C16.87368334 24.38551937 16.94277087 21.69324709 17 19 C17.66 19.66 18.32 20.32 19 21 C19.37125 20.484375 19.7425 19.96875 20.125 19.4375 C22 18 22 18 25.1875 18.3125 C26.115625 18.539375 27.04375 18.76625 28 19 C27.67 19.66 27.34 20.32 27 21 C26.92907158 23.2072923 26.91584975 25.41667452 26.9375 27.625 C26.94652344 28.81351563 26.95554688 30.00203125 26.96484375 31.2265625 C26.97644531 32.14179687 26.98804688 33.05703125 27 34 C27.66 34 28.32 34 29 34 C29.33 33.67 29.66 33.34 30 33 C32.34723966 32.602507 34.70328548 32.25631277 37.0625 31.9375 C38.35285156 31.76089844 39.64320312 31.58429688 40.97265625 31.40234375 C42.47119141 31.20318359 42.47119141 31.20318359 44 31 C43.625 33.4375 43.625 33.4375 43 36 C42.01 36.495 42.01 36.495 41 37 C41 37.66 41 38.32 41 39 C40.34 39 39.68 39 39 39 C38.94585937 39.59039062 38.89171875 40.18078125 38.8359375 40.7890625 C37.60738149 44.03842092 35.63408296 44.72735303 32.625 46.375 C31.53703125 46.97957031 30.4490625 47.58414063 29.328125 48.20703125 C28.22984375 48.79871094 27.1315625 49.39039063 26 50 C25.04609375 50.51949219 24.0921875 51.03898437 23.109375 51.57421875 C21.30087543 52.55855923 19.49099829 53.54037339 17.6796875 54.51953125 C12.32985896 57.47519454 7.08550717 60.60966189 2 64 C-3.23552331 64.54536701 -3.23552331 64.54536701 -5.66699219 62.81079102 C-7.47950416 60.34862961 -7.35804651 58.75626164 -7.328125 55.71484375 C-7.32377441 54.6386377 -7.31942383 53.56243164 -7.31494141 52.45361328 C-7.29351074 51.2932959 -7.27208008 50.13297852 -7.25 48.9375 C-7.23759277 47.74624512 -7.22518555 46.55499023 -7.21240234 45.32763672 C-7.16325224 41.55102223 -7.08611375 37.77594279 -7 34 C-6.97389648 32.76685059 -6.94779297 31.53370117 -6.92089844 30.26318359 C-6.83851487 26.71642876 -6.73712827 23.17093038 -6.625 19.625 C-6.59438477 18.5330835 -6.56376953 17.44116699 -6.53222656 16.31616211 C-6.49323242 15.29659424 -6.45423828 14.27702637 -6.4140625 13.2265625 C-6.3826416 12.33533691 -6.3512207 11.44411133 -6.31884766 10.52587891 C-5.96131188 7.69351663 -5.31666909 5.53426976 -4 3 C-3.01 2.67 -2.02 2.34 -1 2 C-0.67 1.34 -0.34 0.68 0 0 Z " fill="#9969CD" transform="translate(75,68)"/>
<path d="M0 0 C0.99 0.495 0.99 0.495 2 1 C2.1984891 5.87443429 2.34324943 10.74649605 2.43945312 15.62402344 C2.47956774 17.28101589 2.53407796 18.93772718 2.60351562 20.59375 C3.16441303 34.31923934 3.16441303 34.31923934 0.37915039 38.33959961 C-1.68513156 39.91132713 -3.62449008 40.97099756 -6 42 C-6.95003906 42.59425781 -7.90007812 43.18851563 -8.87890625 43.80078125 C-9.76449219 44.29964844 -10.65007812 44.79851562 -11.5625 45.3125 C-16.27056784 47.99942761 -20.9264052 50.75443498 -25.5625 53.5625 C-34.82552401 59.14493764 -44.28846663 64.23903136 -54 69 C-54 68.01 -54 67.02 -54 66 C-54.66 65.67 -55.32 65.34 -56 65 C-54.515 64.505 -54.515 64.505 -53 64 C-53 64.66 -53 65.32 -53 66 C-51.02 65.505 -51.02 65.505 -49 65 C-49 64.01 -49 63.02 -49 62 C-48.34 62 -47.68 62 -47 62 C-47.33 61.34 -47.66 60.68 -48 60 C-48.99 60.495 -48.99 60.495 -50 61 C-50 60.01 -50 59.02 -50 58 C-55.11544525 60.81800465 -55.11544525 60.81800465 -59.375 64.6875 C-59.91125 65.120625 -60.4475 65.55375 -61 66 C-63.6875 65.6875 -63.6875 65.6875 -66 65 C-66.495 65.99 -66.495 65.99 -67 67 C-68.32 66.67 -69.64 66.34 -71 66 C-63.34473983 61.35105658 -55.68951913 56.75774104 -47.796875 52.51953125 C-42.75914607 49.78255282 -37.80019971 46.90542739 -32.82910156 44.04980469 C-29.74291988 42.27850447 -26.65249322 40.5146397 -23.5625 38.75 C-22.47066406 38.12609375 -21.37882812 37.5021875 -20.25390625 36.859375 C-16.8359375 34.90625 -13.41796875 32.953125 -10 31 C-10 25.72 -10 20.44 -10 15 C-11.65 15.66 -13.3 16.32 -15 17 C-15 15.66666667 -15 14.33333333 -15 13 C-15.32380126 11.66431979 -15.65657551 10.33076989 -16 9 C-15.01 9 -14.02 9 -13 9 C-13.495 8.01 -13.495 8.01 -14 7 C-14 6.01 -14 5.02 -14 4 C-12.61518672 3.12808053 -11.21654754 2.27809616 -9.8125 1.4375 C-8.64654297 0.72400391 -8.64654297 0.72400391 -7.45703125 -0.00390625 C-4.48161372 -1.2101566 -3.02842904 -0.9314328 0 0 Z " fill="#AE82DF" transform="translate(195,108)"/>
<path d="M0 0 C1 2 1 2 1 6 C0.34 6 -0.32 6 -1 6 C-1 6.99 -1 7.98 -1 9 C-1.66 9 -2.32 9 -3 9 C-3 9.66 -3 10.32 -3 11 C-3.99 11 -4.98 11 -6 11 C-6 11.99 -6 12.98 -6 14 C-6.63091553 14.35827881 -7.26183105 14.71655762 -7.91186523 15.08569336 C-10.75469737 16.70129052 -13.59611399 18.31936097 -16.4375 19.9375 C-17.43072266 20.50146484 -18.42394531 21.06542969 -19.44726562 21.64648438 C-20.39150391 22.18466797 -21.33574219 22.72285156 -22.30859375 23.27734375 C-23.62041626 24.02359009 -23.62041626 24.02359009 -24.95874023 24.78491211 C-26.92257517 25.84060192 -26.92257517 25.84060192 -28 27 C-28.15582303 28.34015221 -28.25044142 29.68758903 -28.31640625 31.03515625 C-28.35830078 31.84404297 -28.40019531 32.65292969 -28.44335938 33.48632812 C-28.48267578 34.33646484 -28.52199219 35.18660156 -28.5625 36.0625 C-28.60568359 36.91650391 -28.64886719 37.77050781 -28.69335938 38.65039062 C-28.79976702 40.76672037 -28.90041731 42.88333813 -29 45 C-29.33 45 -29.66 45 -30 45 C-30 43.02 -30 41.04 -30 39 C-32.97 39.495 -32.97 39.495 -36 40 C-35.98259766 38.06833984 -35.98259766 38.06833984 -35.96484375 36.09765625 C-35.9554673 34.41927228 -35.94636695 32.74088674 -35.9375 31.0625 C-35.92912109 30.21236328 -35.92074219 29.36222656 -35.91210938 28.48632812 C-35.90727539 27.27299805 -35.90727539 27.27299805 -35.90234375 26.03515625 C-35.89448853 24.91185913 -35.89448853 24.91185913 -35.88647461 23.76586914 C-35.80658248 21.97332261 -35.80658248 21.97332261 -37 21 C-37 49.71 -37 78.42 -37 108 C-37.33 108 -37.66 108 -38 108 C-38.09263171 96.5953777 -38.1637304 85.19084472 -38.20724869 73.785923 C-38.22813408 68.49028497 -38.25646932 63.19490409 -38.30175781 57.89941406 C-38.34518128 52.79009215 -38.36912993 47.68101776 -38.37950897 42.57152557 C-38.38690661 40.62103121 -38.40135233 38.67055058 -38.42292023 36.72016144 C-38.45190772 33.99055072 -38.45595796 31.26196613 -38.45410156 28.53222656 C-38.46848267 27.72374268 -38.48286377 26.91525879 -38.49768066 26.08227539 C-38.47100195 22.46305893 -38.33868156 20.43601166 -36.08343506 17.53265381 C-34.20167581 16.14836037 -32.50199713 15.07536042 -30.375 14.125 C-27.02402188 12.57408262 -24.071934 10.73388065 -21 8.6875 C-16.62998488 5.97461599 -16.62998488 5.97461599 -13.8671875 6.0859375 C-13.20976563 6.24320313 -12.55234375 6.40046875 -11.875 6.5625 C-8.09766491 7.40329917 -8.09766491 7.40329917 -5.7265625 5.53125 C-3.72262842 3.75935039 -1.82917736 1.9507982 0 0 Z " fill="#985FD4" transform="translate(81,36)"/>
<path d="M0 0 C1.32 0.33 2.64 0.66 4 1 C4 1.99 4 2.98 4 4 C3.46890625 4.21914063 2.9378125 4.43828125 2.390625 4.6640625 C-2.46643537 6.83170655 -2.46643537 6.83170655 -5.8125 10.875 C-8.08660584 14.12372263 -9.34251097 14.98470871 -12.75 16.8125 C-13.70132813 17.33070312 -14.65265625 17.84890625 -15.6328125 18.3828125 C-18.20706561 19.61917072 -20.55485304 20.53951547 -23.2421875 21.4296875 C-27.89798749 23.18569558 -32.0750188 24.80587441 -35 29 C-37.31048409 37.72508077 -36.61951701 47.0739168 -36 56 C-36.66 56 -37.32 56 -38 56 C-38.029729 54.75126099 -38.029729 54.75126099 -38.06005859 53.47729492 C-38.13820742 50.385235 -38.22490206 47.29356617 -38.31738281 44.2019043 C-38.37444092 42.2070464 -38.42164442 40.2119146 -38.46875 38.21679688 C-38.50742188 36.96318359 -38.54609375 35.70957031 -38.5859375 34.41796875 C-38.6173584 33.26063232 -38.6487793 32.1032959 -38.68115234 30.91088867 C-38.79471033 27.80872972 -38.79471033 27.80872972 -41 25 C-40.01 24.67 -39.02 24.34 -38 24 C-38 24.66 -38 25.32 -38 26 C-37.34 26 -36.68 26 -36 26 C-35.67 24.35 -35.34 22.7 -35 21 C-36.65 21 -38.3 21 -40 21 C-40.33 21.99 -40.66 22.98 -41 24 C-41.99 24 -42.98 24 -44 24 C-44.85294775 27.75479132 -45.18379707 31.33011494 -45.31640625 35.17578125 C-45.37924805 36.91118164 -45.37924805 36.91118164 -45.44335938 38.68164062 C-45.48267578 39.87982422 -45.52199219 41.07800781 -45.5625 42.3125 C-45.60568359 43.53001953 -45.64886719 44.74753906 -45.69335938 46.00195312 C-45.79921496 49.0011947 -45.90129726 52.00051591 -46 55 C-46.33 55 -46.66 55 -47 55 C-47.19869296 50.6952406 -47.34333564 46.3929468 -47.43945312 42.08496094 C-47.47953636 40.62192275 -47.53402447 39.15920214 -47.60351562 37.69726562 C-48.15936647 25.69742689 -48.15936647 25.69742689 -45.55493164 21.88427734 C-43.4569567 20.25727637 -41.39329565 19.14675737 -39 18 C-37.28695187 16.98228506 -35.57744265 15.95859518 -33.87109375 14.9296875 C-32.06304861 13.90587048 -30.25179944 12.88769248 -28.4375 11.875 C-27.53064453 11.36324219 -26.62378906 10.85148437 -25.68945312 10.32421875 C-23.92980015 9.33146312 -22.16847367 8.34166635 -20.40527344 7.35522461 C-18.27106822 6.15273038 -16.1562553 4.92227315 -14.04296875 3.68359375 C-9.18219311 0.99425575 -5.34166971 0.58602861 0 2 C0 1.34 0 0.68 0 0 Z " fill="#A174D4" transform="translate(115,47)"/>
<path d="M0 0 C0.81726563 0.10183594 1.63453125 0.20367187 2.4765625 0.30859375 C3.10304687 0.39238281 3.72953125 0.47617188 4.375 0.5625 C3.715 1.2225 3.055 1.8825 2.375 2.5625 C2.230625 3.47 2.08625 4.3775 1.9375 5.3125 C-0.18940906 9.73647085 -2.83851315 10.63979095 -7.140625 12.78515625 C-11.35101321 14.93283185 -15.38206514 17.32577944 -19.4375 19.75 C-32.43457906 27.51581683 -32.43457906 27.51581683 -36.8125 27.6875 C-41.51442494 26.30004674 -45.03555908 23.99014102 -49.07421875 21.25390625 C-51.21614928 19.83360622 -53.30049947 18.64581523 -55.625 17.5625 C-53.625 16.5625 -53.625 16.5625 -51.0234375 17.33984375 C-49.52683594 17.91412109 -49.52683594 17.91412109 -48 18.5 C-46.99710938 18.88027344 -45.99421875 19.26054687 -44.9609375 19.65234375 C-44.19007812 19.95269531 -43.41921875 20.25304687 -42.625 20.5625 C-42.625 19.5725 -42.625 18.5825 -42.625 17.5625 C-41.965 17.5625 -41.305 17.5625 -40.625 17.5625 C-40.625 16.5725 -40.625 15.5825 -40.625 14.5625 C-41.945 14.2325 -43.265 13.9025 -44.625 13.5625 C-44.625 12.9025 -44.625 12.2425 -44.625 11.5625 C-43.92375 11.871875 -43.2225 12.18125 -42.5 12.5 C-37.78969676 14.24076424 -35.01551524 15.1722619 -30.2578125 13.0859375 C-29.07832152 12.38675214 -27.90923738 11.66977579 -26.75 10.9375 C-25.82973022 10.38533813 -25.82973022 10.38533813 -24.89086914 9.82202148 C-21.57341264 7.82032722 -18.31732419 5.72668648 -15.0625 3.625 C-12.27207208 1.83840911 -9.96092404 0.95496165 -6.625 0.5625 C-4.10446405 -0.69776798 -2.7707902 -0.35624445 0 0 Z " fill="#955CD0" transform="translate(155.625,131.4375)"/>
<path d="M0 0 C0.66 0 1.32 0 2 0 C1.1875 2.4375 1.1875 2.4375 0 5 C-0.99 5.33 -1.98 5.66 -3 6 C-2.505 7.98 -2.505 7.98 -2 10 C-3.03386841 10.57331055 -3.03386841 10.57331055 -4.08862305 11.15820312 C-9.59609997 14.21622589 -15.09108806 17.29394884 -20.5703125 20.40234375 C-24.19198011 22.45209605 -27.8099683 24.43915771 -31.5546875 26.25390625 C-36.15858914 28.62212051 -36.15858914 28.62212051 -40 32 C-41.02832627 36.52778352 -40.81118332 40.45182684 -40 45 C-40.66 44.67 -41.32 44.34 -42 44 C-41.98839844 43.07316406 -41.97679688 42.14632812 -41.96484375 41.19140625 C-41.95582031 39.99386719 -41.94679688 38.79632813 -41.9375 37.5625 C-41.92589844 36.36753906 -41.91429688 35.17257813 -41.90234375 33.94140625 C-41.66098208 31.11126659 -41.66098208 31.11126659 -43 30 C-43 29.34 -43 28.68 -43 28 C-43.78375 28.474375 -44.5675 28.94875 -45.375 29.4375 C-46.88948678 30.33898023 -48.4235897 31.21179485 -50 32 C-50.33 29.69 -50.66 27.38 -51 25 C-45.52929587 21.49874936 -39.94990127 18.22444513 -34.29663086 15.02905273 C-29.8512331 12.51025295 -25.49547888 9.87147443 -21.18359375 7.12890625 C-16.54712216 4.73187532 -11.11767991 4.60718236 -6 4 C-6 3.34 -6 2.68 -6 2 C-5.34 2 -4.68 2 -4 2 C-3.505 2.99 -3.505 2.99 -3 4 C-2.54625 3.34 -2.0925 2.68 -1.625 2 C-1.08875 1.34 -0.5525 0.68 0 0 Z " fill="#A36FD9" transform="translate(143,58)"/>
<path d="M0 0 C3.17689703 4.76534554 2.41053104 10.19591995 2.42553711 15.76904297 C2.43742358 17.86154659 2.48659872 19.95108847 2.53710938 22.04296875 C2.54657584 23.380194 2.55380981 24.7174373 2.55859375 26.0546875 C2.57204834 27.26624512 2.58550293 28.47780273 2.59936523 29.72607422 C1.83156314 33.92005636 0.28132461 35.36708809 -3 38 C-4.485 38.495 -4.485 38.495 -6 39 C-6.495 37.515 -6.495 37.515 -7 36 C-6.0409375 35.071875 -6.0409375 35.071875 -5.0625 34.125 C-2.96116416 32.17402388 -2.96116416 32.17402388 -2 30 C-2.66 30 -3.32 30 -4 30 C-4.99 32.475 -4.99 32.475 -6 35 C-6.66 34.67 -7.32 34.34 -8 34 C-8 33.34 -8 32.68 -8 32 C-8.66 32 -9.32 32 -10 32 C-10 32.66 -10 33.32 -10 34 C-12.70879335 35.35439668 -15.00933268 35.06501451 -18 35 C-18.33 35.66 -18.66 36.32 -19 37 C-19.66 36.34 -20.32 35.68 -21 35 C-17.37 33.02 -13.74 31.04 -10 29 C-10 24.38 -10 19.76 -10 15 C-11.423125 15.99 -11.423125 15.99 -12.875 17 C-16 19 -16 19 -18 19 C-17.34 17.35 -16.68 15.7 -16 14 C-14.35 14 -12.7 14 -11 14 C-11 13.34 -11 12.68 -11 12 C-12.32 12 -13.64 12 -15 12 C-15.66 11.34 -16.32 10.68 -17 10 C-18.31747324 9.30251417 -19.64914193 8.63040043 -21 8 C-18.82267553 6.64709936 -16.635585 5.31840559 -14.4375 4 C-13.82841797 3.6184375 -13.21933594 3.236875 -12.59179688 2.84375 C-8.2981532 0.29936856 -5.11959519 -0.70876967 0 0 Z " fill="#B180E4" transform="translate(147,28)"/>
<path d="M0 0 C1 3 1 3 1 7 C0.443125 7.226875 -0.11375 7.45375 -0.6875 7.6875 C-3.14593728 8.94041476 -3.14593728 8.94041476 -5.1875 11.25 C-14.94975509 20.79531609 -28.84214337 27.0091721 -41 33 C-41 32.01 -41 31.02 -41 30 C-41.66 29.67 -42.32 29.34 -43 29 C-42.01 28.67 -41.02 28.34 -40 28 C-40 28.66 -40 29.32 -40 30 C-38.68 29.67 -37.36 29.34 -36 29 C-36 28.01 -36 27.02 -36 26 C-35.34 26 -34.68 26 -34 26 C-34.33 25.34 -34.66 24.68 -35 24 C-35.66 24.33 -36.32 24.66 -37 25 C-37 24.01 -37 23.02 -37 22 C-42.11544525 24.81800465 -42.11544525 24.81800465 -46.375 28.6875 C-47.179375 29.3371875 -47.179375 29.3371875 -48 30 C-50.6875 29.6875 -50.6875 29.6875 -53 29 C-53.33 29.66 -53.66 30.32 -54 31 C-55.32 30.67 -56.64 30.34 -58 30 C-50.3488578 25.35355737 -42.69895925 20.75976863 -34.80859375 16.52734375 C-31.51054481 14.73382896 -28.25487629 12.87015904 -25 11 C-23.81261302 10.32271848 -22.62511429 9.64563285 -21.4375 8.96875 C-19.24219869 7.71144107 -17.05388758 6.44179367 -14.875 5.15625 C-13.92625 4.6096875 -12.9775 4.063125 -12 3.5 C-11.175 3.0153125 -10.35 2.530625 -9.5 2.03125 C-6.52625752 0.80458123 -4.18667965 0.89136319 -1 1 C-0.67 0.67 -0.34 0.34 0 0 Z " fill="#9A5ED7" transform="translate(182,144)"/>
<path d="M0 0 C1.65 0 3.3 0 5 0 C4.67 1.65 4.34 3.3 4 5 C3.01 5 2.02 5 1 5 C1.16298584 5.70213623 1.32597168 6.40427246 1.49389648 7.12768555 C2.02419552 10.13731803 2.11331957 12.90268462 2.09765625 15.95703125 C2.09443359 17.06884766 2.09121094 18.18066406 2.08789062 19.32617188 C2.07951172 20.47666016 2.07113281 21.62714844 2.0625 22.8125 C2.05798828 23.98232422 2.05347656 25.15214844 2.04882812 26.35742188 C2.0370693 29.23833358 2.02063426 32.11914044 2 35 C2.66 35 3.32 35 4 35 C4 39.62 4 44.24 4 49 C4.99 49 5.98 49 7 49 C5.28571429 58.71428571 5.28571429 58.71428571 3 61 C0.30917128 60.82364548 -2.32851446 60.38164079 -5 60 C-5.19381201 52.68627101 -5.3711687 45.37227542 -5.53710938 38.05786133 C-5.59549521 35.56981381 -5.65764277 33.08185159 -5.72363281 30.59399414 C-5.81785163 27.01724783 -5.89852262 23.44041261 -5.9765625 19.86328125 C-6.00875885 18.75165115 -6.0409552 17.64002106 -6.0741272 16.4947052 C-6.09429901 15.45400375 -6.11447083 14.41330231 -6.13525391 13.34106445 C-6.15746002 12.4283931 -6.17966614 11.51572174 -6.20254517 10.57539368 C-5.97305125 7.65734245 -5.36831218 5.58644116 -4 3 C-3.01 2.67 -2.02 2.34 -1 2 C-0.67 1.34 -0.34 0.68 0 0 Z " fill="#8C49CF" transform="translate(75,68)"/>
<path d="M0 0 C0.99 0 1.98 0 3 0 C3.37713139 7.54262788 3.37713139 7.54262788 1.53125 9.78125 C-0.63976804 12.92701083 -0.56509895 16.04999119 -0.6875 19.75 C-0.72166016 20.44738281 -0.75582031 21.14476563 -0.79101562 21.86328125 C-0.87308295 23.57497108 -0.93822919 25.2874576 -1 27 C-1.33 27 -1.66 27 -2 27 C-2 20.73 -2 14.46 -2 8 C-3.39089844 8.82242187 -4.78179687 9.64484375 -6.21484375 10.4921875 C-9.12276552 12.21156215 -12.03109392 13.93023563 -14.94042969 15.6472168 C-19.69165542 18.45132521 -24.44010139 21.25954593 -29.17578125 24.08984375 C-29.95252197 24.55213379 -30.7292627 25.01442383 -31.52954102 25.49072266 C-32.98652526 26.35802477 -34.44151657 27.22868543 -35.89428711 28.10302734 C-40.77451585 31 -40.77451585 31 -43 31 C-43 30.34 -43 29.68 -43 29 C-42.01 29 -41.02 29 -40 29 C-40 28.34 -40 27.68 -40 27 C-39.34 27 -38.68 27 -38 27 C-37.67 24.36 -37.34 21.72 -37 19 C-37.50789063 19.52851562 -38.01578125 20.05703125 -38.5390625 20.6015625 C-40.61719783 22.6174316 -42.57501823 24.4137664 -45 26 C-48.5 25.4375 -48.5 25.4375 -51 24 C-47.46144349 21.04902667 -43.84852207 18.58033625 -39.875 16.25 C-38.84117188 15.63640625 -37.80734375 15.0228125 -36.7421875 14.390625 C-34 13 -34 13 -31 13 C-31 12.34 -31 11.68 -31 11 C-23.66467626 7.73985612 -16.82970454 6.7732033 -9 9 C-8.67 8.01 -8.34 7.02 -8 6 C-5.69 6 -3.38 6 -1 6 C-0.67 4.02 -0.34 2.04 0 0 Z " fill="#A472D8" transform="translate(118,18)"/>
<path d="M0 0 C0.66 1.98 1.32 3.96 2 6 C-1.465 7.98 -1.465 7.98 -5 10 C-2.96197865 14.06024321 -2.96197865 14.06024321 1 16 C1 16.99 1 17.98 1 19 C0.34 19 -0.32 19 -1 19 C-1 19.99 -1 20.98 -1 22 C-4.43333551 21.37575718 -7.63450026 20.49165394 -10.9375 19.375 C-14.98784047 18.12175564 -17.8342585 17.79412746 -22 19 C-22 17.35 -22 15.7 -22 14 C-19.03 14.495 -19.03 14.495 -16 15 C-15.67 13.35 -15.34 11.7 -15 10 C-15.763125 10.350625 -16.52625 10.70125 -17.3125 11.0625 C-20 12 -20 12 -23 11 C-24.70116376 11.94011682 -26.36504293 12.94895617 -28 14 C-29.65369357 14.69822617 -31.31727014 15.37498605 -33 16 C-33.66 15.34 -34.32 14.68 -35 14 C-34.17592651 13.52373169 -34.17592651 13.52373169 -33.33520508 13.0378418 C-30.82739288 11.5881492 -28.3199435 10.1378302 -25.8125 8.6875 C-24.94818359 8.18798828 -24.08386719 7.68847656 -23.19335938 7.17382812 C-18.0923397 4.22293565 -18.0923397 4.22293565 -13.0390625 1.19140625 C-8.58777574 -1.40944138 -4.92934807 -1.03172401 0 0 Z " fill="#9055D1" transform="translate(114,130)"/>
<path d="M0 0 C0.928125 0.226875 1.85625 0.45375 2.8125 0.6875 C2.4825 1.3475 2.1525 2.0075 1.8125 2.6875 C1.74131794 6.19766537 1.81581834 9.69681886 1.875 13.20703125 C1.82114526 16.20606702 1.52003008 18.78552116 0.8125 21.6875 C1.4725 21.6875 2.1325 21.6875 2.8125 21.6875 C2.4825 23.9975 2.1525 26.3075 1.8125 28.6875 C-1.1875 29.6875 -1.1875 29.6875 -4.1875 28.6875 C-4.1875 29.6775 -4.1875 30.6675 -4.1875 31.6875 C-4.8475 31.6875 -5.5075 31.6875 -6.1875 31.6875 C-6.5175 32.6775 -6.8475 33.6675 -7.1875 34.6875 C-9.8275 34.6875 -12.4675 34.6875 -15.1875 34.6875 C-13.89996616 30.71760401 -12.62025725 29.0129162 -9.1875 26.6875 C-7.88274382 24.07798764 -8.07448428 22.16048715 -8.08984375 19.2421875 C-8.09306641 18.16582031 -8.09628906 17.08945313 -8.09960938 15.98046875 C-8.11217773 14.28857422 -8.11217773 14.28857422 -8.125 12.5625 C-8.13176758 10.85900391 -8.13176758 10.85900391 -8.13867188 9.12109375 C-8.15048385 6.30984362 -8.16695493 3.4986977 -8.1875 0.6875 C-7.5275 1.3475 -6.8675 2.0075 -6.1875 2.6875 C-5.81625 2.171875 -5.445 1.65625 -5.0625 1.125 C-3.1875 -0.3125 -3.1875 -0.3125 0 0 Z " fill="#9152D1" transform="translate(100.1875,86.3125)"/>
<path d="M0 0 C0.33 0 0.66 0 1 0 C1.33 5.94 1.66 11.88 2 18 C3.959375 16.865625 5.91875 15.73125 7.9375 14.5625 C9.59072266 13.60537109 9.59072266 13.60537109 11.27734375 12.62890625 C13.8283571 11.25289773 13.8283571 11.25289773 15 10 C17.33297433 9.95907063 19.66705225 9.95758277 22 10 C23.67128932 12.94381488 24.27731759 15.17383394 24.4140625 18.546875 C24.45273438 19.39121094 24.49140625 20.23554687 24.53125 21.10546875 C24.5621875 21.97816406 24.593125 22.85085937 24.625 23.75 C24.66367188 24.63816406 24.70234375 25.52632812 24.7421875 26.44140625 C24.83620873 28.6273998 24.92186143 30.81339062 25 33 C24.34 33 23.68 33 23 33 C21.50475822 30.7272325 20.21600285 28.4320057 19 26 C18.34 26 17.68 26 17 26 C17 26.66 17 27.32 17 28 C16.34 28 15.68 28 15 28 C14.67 31.96 14.34 35.92 14 40 C13.34 39.67 12.68 39.34 12 39 C12.33 34.38 12.66 29.76 13 25 C12.01 25.66 11.02 26.32 10 27 C7.66800612 27.07905064 5.33167378 27.08798769 3 27 C3.33 26.01 3.66 25.02 4 24 C5.65 23.67 7.3 23.34 9 23 C9.33 21.35 9.66 19.7 10 18 C8.68 18 7.36 18 6 18 C6 18.66 6 19.32 6 20 C4.02 20 2.04 20 0 20 C0 13.4 0 6.8 0 0 Z " fill="#B98BE5" transform="translate(148,85)"/>
<path d="M0 0 C-0.48666613 4.28266193 -1.27426875 6.68171848 -4 10 C-4 10.66 -4 11.32 -4 12 C-9.89695365 15.29504282 -15.72320373 18.48928149 -22 21 C-22.33 20.01 -22.66 19.02 -23 18 C-26.24484731 15.71658893 -29.12459955 15.82384543 -33 16 C-30.95570847 13.80918394 -29.00528249 12.28492109 -26.3828125 10.84375 C-25.69316406 10.46089844 -25.00351563 10.07804687 -24.29296875 9.68359375 C-23.57753906 9.29300781 -22.86210938 8.90242188 -22.125 8.5 C-20.71059421 7.71937167 -19.29652393 6.93813509 -17.8828125 6.15625 C-17.21338623 5.78798096 -16.54395996 5.41971191 -15.85424805 5.0402832 C-14.26653734 4.14953464 -12.70622625 3.21024785 -11.15234375 2.26171875 C-7.4515248 0.09227316 -4.24628389 0 0 0 Z " fill="#9D68D5" transform="translate(138,114)"/>
<path d="M0 0 C1 3 1 3 1 7 C0.443125 7.226875 -0.11375 7.45375 -0.6875 7.6875 C-3.14593728 8.94041476 -3.14593728 8.94041476 -5.1875 11.25 C-14.13636364 20 -14.13636364 20 -19 20 C-19.33 19.01 -19.66 18.02 -20 17 C-18.35 17 -16.7 17 -15 17 C-15.33 15.35 -15.66 13.7 -16 12 C-17.65 12 -19.3 12 -21 12 C-21.33 12.66 -21.66 13.32 -22 14 C-22.66 14 -23.32 14 -24 14 C-24 14.66 -24 15.32 -24 16 C-27.63423209 18.32590854 -30.77088331 18.16265833 -35 18 C-31.7968873 14.06890714 -27.92600823 12.36100832 -23.453125 10.22265625 C-20.45370068 8.72772024 -17.77689593 6.87138639 -15 5 C-10.18205824 2.16190071 -6.72751047 0.58091387 -1 1 C-0.67 0.67 -0.34 0.34 0 0 Z " fill="#A46EDC" transform="translate(182,144)"/>
<path d="M0 0 C0.66 0 1.32 0 2 0 C2.28875 0.78375 2.5775 1.5675 2.875 2.375 C3.84912254 5.09671632 3.84912254 5.09671632 6 7 C5.34 7 4.68 7 4 7 C4 7.66 4 8.32 4 9 C0.54565686 11.00695291 -2.9141063 13.00436779 -6.375 15 C-7.35984375 15.57234375 -8.3446875 16.1446875 -9.359375 16.734375 C-10.30039063 17.27578125 -11.24140625 17.8171875 -12.2109375 18.375 C-13.51490479 19.12910156 -13.51490479 19.12910156 -14.84521484 19.8984375 C-17 21 -17 21 -19 21 C-19 20.34 -19 19.68 -19 19 C-18.34 19 -17.68 19 -17 19 C-17.33 18.01 -17.66 17.02 -18 16 C-17.525625 15.54625 -17.05125 15.0925 -16.5625 14.625 C-14.90972192 13.06741796 -14.90972192 13.06741796 -14 11 C-14.9075 11.350625 -15.815 11.70125 -16.75 12.0625 C-20.00591313 13.00170571 -20.92749994 12.95514676 -24 12 C-18.01025 7.71201075 -13.34292614 4.48222798 -5.875 4.2421875 C-2.99778711 3.8705475 -1.75688988 2.17854346 0 0 Z " fill="#A372D8" transform="translate(133,88)"/>
<path d="M0 0 C1.22589844 0.15275391 1.22589844 0.15275391 2.4765625 0.30859375 C3.41628906 0.43427734 3.41628906 0.43427734 4.375 0.5625 C3.715 1.2225 3.055 1.8825 2.375 2.5625 C2.230625 3.47 2.08625 4.3775 1.9375 5.3125 C-0.25629769 9.8755992 -3.42262217 10.96226534 -7.84765625 13.171875 C-10.9859557 14.74323168 -13.75926934 16.54874332 -16.625 18.5625 C-17.285 18.2325 -17.945 17.9025 -18.625 17.5625 C-18.295 16.9025 -17.965 16.2425 -17.625 15.5625 C-16.965 15.5625 -16.305 15.5625 -15.625 15.5625 C-15.625 14.9025 -15.625 14.2425 -15.625 13.5625 C-16.285 12.9025 -16.945 12.2425 -17.625 11.5625 C-16.635 10.9025 -15.645 10.2425 -14.625 9.5625 C-15.264375 9.43875 -15.90375 9.315 -16.5625 9.1875 C-17.243125 8.98125 -17.92375 8.775 -18.625 8.5625 C-18.955 7.9025 -19.285 7.2425 -19.625 6.5625 C-11.56712049 1.14392594 -11.56712049 1.14392594 -6.625 0.5625 C-4.10446405 -0.69776798 -2.7707902 -0.35624445 0 0 Z " fill="#A470DA" transform="translate(155.625,131.4375)"/>
<path d="M0 0 C0.66 0 1.32 0 2 0 C1.1875 2.4375 1.1875 2.4375 0 5 C-0.99 5.33 -1.98 5.66 -3 6 C-2.67 7.32 -2.34 8.64 -2 10 C-3.90435268 11.22764874 -5.8239921 12.43161233 -7.75 13.625 C-8.81734375 14.29789063 -9.8846875 14.97078125 -10.984375 15.6640625 C-14 17 -14 17 -16.390625 16.2109375 C-16.92171875 15.81132813 -17.4528125 15.41171875 -18 15 C-17.67 13.68 -17.34 12.36 -17 11 C-17.7425 11.391875 -18.485 11.78375 -19.25 12.1875 C-20.1575 12.455625 -21.065 12.72375 -22 13 C-24.3125 11.625 -24.3125 11.625 -26 10 C-18.72145669 5.5757874 -18.72145669 5.5757874 -14 5 C-12.96746094 4.86464844 -12.96746094 4.86464844 -11.9140625 4.7265625 C-9.94441653 4.47085408 -7.97234199 4.23400668 -6 4 C-6 3.34 -6 2.68 -6 2 C-5.34 2 -4.68 2 -4 2 C-3.67 2.66 -3.34 3.32 -3 4 C-2.54625 3.34 -2.0925 2.68 -1.625 2 C-1.08875 1.34 -0.5525 0.68 0 0 Z " fill="#AA75E0" transform="translate(143,58)"/>
<path d="M0 0 C-0.29019902 3.77258731 -0.51657629 6.32665983 -2.75 9.4375 C-5.47935601 11.33288612 -6.75289814 11 -10 11 C-11.678298 12.31866272 -13.34614767 13.65080468 -15 15 C-15.99 14.67 -16.98 14.34 -18 14 C-18.680625 15.2065625 -18.680625 15.2065625 -19.375 16.4375 C-21 19 -21 19 -23 20 C-23 19.01 -23 18.02 -23 17 C-23.66 16.67 -24.32 16.34 -25 16 C-24.01 15.67 -23.02 15.34 -22 15 C-21.12546721 13.32428032 -21.12546721 13.32428032 -20.4375 11.3125 C-17.89673884 5.83706122 -13.37381531 3.39296244 -8 1 C-5.18926417 0.29418372 -2.90569005 0 0 0 Z " fill="#A061DC" transform="translate(106,51)"/>
<path d="M0 0 C3.125 0.375 3.125 0.375 6 1 C5.01 2.485 5.01 2.485 4 4 C4.66 4.66 5.32 5.32 6 6 C5.34 6 4.68 6 4 6 C4 6.66 4 7.32 4 8 C3.34 8 2.68 8 2 8 C1.34 9.32 0.68 10.64 0 12 C-0.99 12 -1.98 12 -3 12 C-3.33 11.01 -3.66 10.02 -4 9 C-4 10.32 -4 11.64 -4 13 C-4.99 13 -5.98 13 -7 13 C-7 13.66 -7 14.32 -7 15 C-8.65 15 -10.3 15 -12 15 C-12 15.99 -12 16.98 -12 18 C-12.66 18 -13.32 18 -14 18 C-14 17.34 -14 16.68 -14 16 C-14.66 15.67 -15.32 15.34 -16 15 C-16.33 14.34 -16.66 13.68 -17 13 C-16.34 12.34 -15.68 11.68 -15 11 C-14.608125 10.54625 -14.21625 10.0925 -13.8125 9.625 C-10.90542933 7.01866078 -6.97884196 4 -3 4 C-2.67 3.34 -2.34 2.68 -2 2 C-1.34 1.34 -0.68 0.68 0 0 Z " fill="#985AD8" transform="translate(136,139)"/>
<path d="M0 0 C2.45286296 3.67929445 2.23228878 5.47377907 2.1953125 9.85546875 C2.1924826 10.51710526 2.18965271 11.17874176 2.18673706 11.86042786 C2.17555918 13.96963737 2.15045981 16.07841925 2.125 18.1875 C2.11496707 19.61913448 2.10584176 21.05077564 2.09765625 22.48242188 C2.07562795 25.98841977 2.04111485 29.49416813 2 33 C1.67 33 1.34 33 1 33 C1 23.43 1 13.86 1 4 C-3.88214887 2.41074435 -3.88214887 2.41074435 -7 5 C-8.32567199 5.68177416 -9.65753688 6.35191436 -11 7 C-10.071875 7.680625 -10.071875 7.680625 -9.125 8.375 C-7 10 -7 10 -5 12 C-5.33 12.66 -5.66 13.32 -6 14 C-7.32 13.67 -8.64 13.34 -10 13 C-10.33 13.99 -10.66 14.98 -11 16 C-15.33333333 19 -15.33333333 19 -18 19 C-17.34 17.35 -16.68 15.7 -16 14 C-14.35 14 -12.7 14 -11 14 C-11 13.34 -11 12.68 -11 12 C-12.32 12 -13.64 12 -15 12 C-15.66 11.34 -16.32 10.68 -17 10 C-18.31747324 9.30251417 -19.64914193 8.63040043 -21 8 C-18.82267553 6.64709936 -16.635585 5.31840559 -14.4375 4 C-13.82841797 3.6184375 -13.21933594 3.236875 -12.59179688 2.84375 C-8.2981532 0.29936856 -5.11959519 -0.70876967 0 0 Z " fill="#B78BE4" transform="translate(147,28)"/>
<path d="M0 0 C0.66 0.33 1.32 0.66 2 1 C2 3.31 2 5.62 2 8 C1.67 6.68 1.34 5.36 1 4 C-1.64 3.67 -4.28 3.34 -7 3 C-7.18490007 5.32357511 -7.18490007 5.32357511 -5 8 C-4.60612212 10.32387947 -4.26513915 12.65793749 -4 15 C-4.99 15 -5.98 15 -7 15 C-7.33 13.35 -7.66 11.7 -8 10 C-8.66 10 -9.32 10 -10 10 C-10 10.99 -10 11.98 -10 13 C-9.34 13 -8.68 13 -8 13 C-8 18.94 -8 24.88 -8 31 C-8.33 31 -8.66 31 -9 31 C-9.33 25.72 -9.66 20.44 -10 15 C-11.65 15.66 -13.3 16.32 -15 17 C-15 15.66666667 -15 14.33333333 -15 13 C-15.32380126 11.66431979 -15.65657551 10.33076989 -16 9 C-15.01 9 -14.02 9 -13 9 C-13.33 8.34 -13.66 7.68 -14 7 C-14 6.01 -14 5.02 -14 4 C-12.61518672 3.12808053 -11.21654754 2.27809616 -9.8125 1.4375 C-8.64654297 0.72400391 -8.64654297 0.72400391 -7.45703125 -0.00390625 C-4.48161372 -1.2101566 -3.02842904 -0.9314328 0 0 Z " fill="#C299EA" transform="translate(195,108)"/>
<path d="M0 0 C-0.375 2.4375 -0.375 2.4375 -1 5 C-1.99 5.495 -1.99 5.495 -3 6 C-3 6.66 -3 7.32 -3 8 C-3.66 8 -4.32 8 -5 8 C-5.33 9.32 -5.66 10.64 -6 12 C-9.01031744 12.93423645 -9.86650268 13.04449911 -13 12 C-13.33 12.66 -13.66 13.32 -14 14 C-14.99 13.67 -15.98 13.34 -17 13 C-16.67 11.68 -16.34 10.36 -16 9 C-16.66 9 -17.32 9 -18 9 C-18 7.35 -18 5.7 -18 4 C-14.68926459 2.09672699 -11.63400513 1.45686075 -7.875 0.875 C-6.29332031 0.62363281 -6.29332031 0.62363281 -4.6796875 0.3671875 C-2 0 -2 0 0 0 Z " fill="#9E64D8" transform="translate(119,99)"/>
<path d="M0 0 C1.32 0.33 2.64 0.66 4 1 C4 1.99 4 2.98 4 4 C3.46890625 4.21914063 2.9378125 4.43828125 2.390625 4.6640625 C-1.41143572 6.37082698 -3.59133181 7.38040629 -5.9375 10.9375 C-8.71421491 15.06050093 -12.2875925 17.40270842 -17 19 C-19.78515625 18.62890625 -19.78515625 18.62890625 -22 18 C-20.8125 16 -20.8125 16 -19 14 C-17.33385392 13.95834635 -15.66614608 13.95834635 -14 14 C-12.18523997 12.60414215 -12.18523997 12.60414215 -11 11 C-11.33 10.34 -11.66 9.68 -12 9 C-11.34 8.67 -10.68 8.34 -10 8 C-9.34786708 5.97536745 -9.34786708 5.97536745 -9 4 C-10.65 4.33 -12.3 4.66 -14 5 C-12.15724125 2.64536382 -11.06935196 2.01809181 -8.125 1.25 C-5.13102009 1.01048161 -2.88660716 1.2358981 0 2 C0 1.34 0 0.68 0 0 Z " fill="#A97ED6" transform="translate(115,47)"/>
<path d="M0 0 C2.625 0.1875 2.625 0.1875 5.625 2.1875 C5.96557617 4.06689453 5.96557617 4.06689453 5.91796875 6.3203125 C5.90830078 7.12597656 5.89863281 7.93164062 5.88867188 8.76171875 C5.86353516 9.60347656 5.83839844 10.44523437 5.8125 11.3125 C5.79896484 12.16199219 5.78542969 13.01148437 5.77148438 13.88671875 C5.73608219 15.98724837 5.68227401 18.08745293 5.625 20.1875 C4.635 20.5175 3.645 20.8475 2.625 21.1875 C1.965 20.5275 1.305 19.8675 0.625 19.1875 C0.955 18.1975 1.285 17.2075 1.625 16.1875 C0.635 16.1875 -0.355 16.1875 -1.375 16.1875 C-1.0346875 14.33125 -1.0346875 14.33125 -0.6875 12.4375 C-0.21268771 8.9755083 -0.21268771 8.9755083 -1.8125 5.875 C-2.328125 5.318125 -2.84375 4.76125 -3.375 4.1875 C-3.375 0.26644737 -3.375 0.26644737 0 0 Z " fill="#B483E7" transform="translate(190.375,109.8125)"/>
<path d="M0 0 C2.97 0.495 2.97 0.495 6 1 C5.67 1.99 5.34 2.98 5 4 C1.4375 5.1875 1.4375 5.1875 -2 6 C-2 6.66 -2 7.32 -2 8 C-1.01 8 -0.02 8 1 8 C1.33 8.66 1.66 9.32 2 10 C4.37374861 10.33425735 4.37374861 10.33425735 7 10 C7.433125 9.34 7.86625 8.68 8.3125 8 C10 6 10 6 11.9609375 5.734375 C13.97585501 5.74851477 15.98935106 5.86815417 18 6 C15.64112448 7.88710042 13.18717737 9.59111011 10.625 11.1875 C10.08101562 11.53167969 9.53703125 11.87585938 8.9765625 12.23046875 C4.98769793 13.78344567 1.87520067 13.38390003 -1.9921875 11.6875 C-2.94351563 11.130625 -3.89484375 10.57375 -4.875 10 C-5.84179688 9.443125 -6.80859375 8.88625 -7.8046875 8.3125 C-8.52914062 7.879375 -9.25359375 7.44625 -10 7 C-7.75 4.5 -7.75 4.5 -5 2 C-3.68 2 -2.36 2 -1 2 C-0.67 1.34 -0.34 0.68 0 0 Z " fill="#935AD1" transform="translate(116,175)"/>
<path d="M0 0 C0.99 0.33 1.98 0.66 3 1 C3 1.66 3 2.32 3 3 C7.455 3.99 7.455 3.99 12 5 C12 8.76687864 11.76462683 9.91190305 10 13 C3.375 12.25 3.375 12.25 0 10 C0 9.01 0 8.02 0 7 C-0.99 6.34 -1.98 5.68 -3 5 C-1.125 1.125 -1.125 1.125 0 0 Z " fill="#7B3AC2" transform="translate(59,144)"/>
<path d="M0 0 C2.27467581 1.09677235 4.54454524 2.20198422 6.8125 3.3125 C7.45509766 3.62123047 8.09769531 3.92996094 8.75976562 4.24804688 C11.95607616 5.82136035 14.70577107 7.22816208 17 10 C10.25 9.125 10.25 9.125 8 8 C8 7.34 8 6.68 8 6 C7.34 6 6.68 6 6 6 C4.36323743 7.9600281 4.36323743 7.9600281 3 10 C3.99 10.66 4.98 11.32 6 12 C5.01 13.485 5.01 13.485 4 15 C0.7 13.02 -2.6 11.04 -6 9 C-5.67 8.34 -5.34 7.68 -5 7 C-3.02 7 -1.04 7 1 7 C1.33 6.34 1.66 5.68 2 5 C1.34 5 0.68 5 0 5 C0 3.35 0 1.7 0 0 Z " fill="#8651C5" transform="translate(54,139)"/>
<path d="M0 0 C0.33 0.99 0.66 1.98 1 3 C1.66 2.67 2.32 2.34 3 2 C3 2.99 3 3.98 3 5 C2.34 5 1.68 5 1 5 C1 5.99 1 6.98 1 8 C-2.875 9 -2.875 9 -4 9 C-4.04125 9.598125 -4.0825 10.19625 -4.125 10.8125 C-5 13 -5 13 -8.0625 14.75 C-9.5165625 15.36875 -9.5165625 15.36875 -11 16 C-11.1953125 9.9453125 -11.1953125 9.9453125 -11 8 C-10.34 7.34 -9.68 6.68 -9 6 C-8.67 5.34 -8.34 4.68 -8 4 C-5.68191636 2.96514123 -3.34824702 1.9644586 -1 1 C-0.67 0.67 -0.34 0.34 0 0 Z " fill="#965BD5" transform="translate(145,165)"/>
<path d="M0 0 C0.66 0.33 1.32 0.66 2 1 C1.67 1.66 1.34 2.32 1 3 C2.32 3 3.64 3 5 3 C5 3.99 5 4.98 5 6 C7.22739701 4.93798263 7.22739701 4.93798263 10 3 C12.33199388 2.92094936 14.66832622 2.91201231 17 3 C15.69325696 4.03450491 14.34935074 5.02172071 13 6 C12.3709375 6.45632812 11.741875 6.91265625 11.09375 7.3828125 C10.05734375 8.09050781 10.05734375 8.09050781 9 8.8125 C8.01 9.50279297 8.01 9.50279297 7 10.20703125 C5 11 5 11 2.75 10.13671875 C1.88375 9.57404297 1.88375 9.57404297 1 9 C1.33 7.68 1.66 6.36 2 5 C0.88625 5.5878125 0.88625 5.5878125 -0.25 6.1875 C-1.1575 6.455625 -2.065 6.72375 -3 7 C-5.3125 5.625 -5.3125 5.625 -7 4 C-1.7265625 0.77734375 -1.7265625 0.77734375 0 0 Z " fill="#AF7BE3" transform="translate(124,64)"/>
<path d="M0 0 C0.66 0.33 1.32 0.66 2 1 C1.3125 2.9375 1.3125 2.9375 0 5 C-2.625 5.75 -2.625 5.75 -5 6 C-4.01 6.66 -3.02 7.32 -2 8 C-7.625 10 -7.625 10 -11 10 C-11.33 10.66 -11.66 11.32 -12 12 C-12.66 12 -13.32 12 -14 12 C-14 12.66 -14 13.32 -14 14 C-17.63423209 16.32590854 -20.77088331 16.16265833 -25 16 C-21.79947955 12.07208854 -17.93284197 10.36542802 -13.46484375 8.2265625 C-10.45623414 6.7294097 -7.75352423 4.92106342 -5 3 C-2.25 1.1875 -2.25 1.1875 0 0 Z " fill="#A579DB" transform="translate(172,146)"/>
<path d="M0 0 C0.66 0.33 1.32 0.66 2 1 C2 1.99 2 2.98 2 4 C2.99 3.67 3.98 3.34 5 3 C5.66 5.31 6.32 7.62 7 10 C8.65 10 10.3 10 12 10 C9.82575883 12.50037734 8.26954202 13.43628586 5 14 C4.5875 13.38125 4.175 12.7625 3.75 12.125 C2.16630646 9.89320739 2.16630646 9.89320739 -0.125 9 C-2 8 -2 8 -2.9375 6.125 C-3.0225942 3.23179718 -1.88243538 2.10832763 0 0 Z " fill="#8036C9" transform="translate(79,154)"/>
<path d="M0 0 C0.33 0 0.66 0 1 0 C1.14857681 4.34149055 1.25731436 8.68162732 1.32958984 13.02490234 C1.35972248 14.50140156 1.40063879 15.97772232 1.45263672 17.45361328 C1.52562629 19.57889779 1.55948491 21.70181393 1.5859375 23.828125 C1.6173584 25.1059082 1.6487793 26.38369141 1.68115234 27.70019531 C1 31 1 31 -2.03662109 33.44824219 C-3.01453613 33.96032227 -3.99245117 34.47240234 -5 35 C-5.66 34.67 -6.32 34.34 -7 34 C-7 33.34 -7 32.68 -7 32 C-5.80310547 31.12794922 -5.80310547 31.12794922 -4.58203125 30.23828125 C-0.09773189 25.9311394 -0.93633523 18.98266267 -0.6875 13.1875 C-0.61466797 11.92228516 -0.54183594 10.65707031 -0.46679688 9.35351562 C-0.29034453 6.23619078 -0.13554013 3.11932744 0 0 Z " fill="#AD88D5" transform="translate(147,32)"/>
<path d="M0 0 C0.33 0.66 0.66 1.32 1 2 C1.99 2.33 2.98 2.66 4 3 C4 3.99 4 4.98 4 6 C3.34 6 2.68 6 2 6 C2 6.99 2 7.98 2 9 C-2.60853797 8.27991594 -6.67237409 6.68704061 -11 5 C-8.19499369 0.79249053 -4.97384386 0 0 0 Z " fill="#8C4AD2" transform="translate(111,143)"/>
<path d="M0 0 C2.9375 0.75 2.9375 0.75 6 2 C6.6875 4.0625 6.6875 4.0625 7 6 C7.99 6.33 8.98 6.66 10 7 C10 7.66 10 8.32 10 9 C9.34 9 8.68 9 8 9 C8 9.66 8 10.32 8 11 C7.01 11 6.02 11 5 11 C4.67 10.01 4.34 9.02 4 8 C3.01 8.495 3.01 8.495 2 9 C0.0546875 8.66015625 0.0546875 8.66015625 -2.125 8.0625 C-2.84945312 7.86785156 -3.57390625 7.67320312 -4.3203125 7.47265625 C-4.87460938 7.31667969 -5.42890625 7.16070312 -6 7 C-5.36578125 6.89816406 -4.7315625 6.79632813 -4.078125 6.69140625 C-3.39234375 6.46324219 -2.7065625 6.23507813 -2 6 C-0.6954344 3.00384054 -0.6954344 3.00384054 0 0 Z " fill="#823DC9" transform="translate(93,163)"/>
<path d="M0 0 C0.33 0 0.66 0 1 0 C1.02505615 0.7206665 1.0501123 1.44133301 1.07592773 2.18383789 C1.19260076 5.47687464 1.31500179 8.76967501 1.4375 12.0625 C1.47681641 13.19623047 1.51613281 14.32996094 1.55664062 15.49804688 C1.80101603 22.39670839 1.80101603 22.39670839 2.59765625 29.24609375 C2.73042969 30.15488281 2.86320312 31.06367188 3 32 C2.505 32.495 2.505 32.495 2 33 C1.92794489 34.68608966 1.91613932 36.37500659 1.9375 38.0625 C1.94652344 38.98160156 1.95554688 39.90070313 1.96484375 40.84765625 C1.97644531 41.55792969 1.98804688 42.26820313 2 43 C3.98 43 5.96 43 8 43 C7.67 43.99 7.34 44.98 7 46 C4.625 46.125 4.625 46.125 2 46 C0 44 0 44 -0.24050903 42.08908081 C-0.23606781 41.31186676 -0.23162659 40.53465271 -0.22705078 39.73388672 C-0.22689972 38.85312469 -0.22674866 37.97236267 -0.22659302 37.06491089 C-0.21627045 36.11278717 -0.20594788 35.16066345 -0.1953125 34.1796875 C-0.1924826 33.20589142 -0.18965271 32.23209534 -0.18673706 31.22879028 C-0.17551913 28.11073651 -0.1504117 24.99296732 -0.125 21.875 C-0.11497228 19.76432706 -0.10584607 17.65364962 -0.09765625 15.54296875 C-0.07557458 10.36188165 -0.04208129 5.18096115 0 0 Z " fill="#7538B9" transform="translate(44,101)"/>
<path d="M0 0 C0.66 0.33 1.32 0.66 2 1 C1.67 2.65 1.34 4.3 1 6 C0.01 6.33 -0.98 6.66 -2 7 C-2 7.66 -2 8.32 -2 9 C-3.65 9 -5.3 9 -7 9 C-7 9.99 -7 10.98 -7 12 C-7.66 12 -8.32 12 -9 12 C-9 11.34 -9 10.68 -9 10 C-9.66 9.67 -10.32 9.34 -11 9 C-11.33 8.34 -11.66 7.68 -12 7 C-11.34 6.34 -10.68 5.68 -10 5 C-9.566875 4.46375 -9.13375 3.9275 -8.6875 3.375 C-6.41235154 1.52117533 -4.86327681 1.92658265 -2 2 C-1.34 1.34 -0.68 0.68 0 0 Z " fill="#9152D3" transform="translate(131,145)"/>
<path d="M0 0 C0.33 0 0.66 0 1 0 C1 5.28 1 10.56 1 16 C0.01 15.34 -0.98 14.68 -2 14 C-2 13.34 -2 12.68 -2 12 C-2.66 12 -3.32 12 -4 12 C-4 12.66 -4 13.32 -4 14 C-4.66 14 -5.32 14 -6 14 C-6.33 17.96 -6.66 21.92 -7 26 C-7.66 25.67 -8.32 25.34 -9 25 C-8.91284983 23.06166004 -8.80467036 21.1242571 -8.6875 19.1875 C-8.62949219 18.10855469 -8.57148438 17.02960938 -8.51171875 15.91796875 C-7.95685417 12.75396996 -7.38609581 11.99678544 -5 10 C-4.855625 9.319375 -4.71125 8.63875 -4.5625 7.9375 C-4 6 -4 6 -1.9375 4.75 C-1.298125 4.5025 -0.65875 4.255 0 4 C0 2.68 0 1.36 0 0 Z " fill="#B68DE7" transform="translate(169,99)"/>
<path d="M0 0 C2.1875 0.3125 2.1875 0.3125 4 1 C3.01 1.495 3.01 1.495 2 2 C2.99 3.485 2.99 3.485 4 5 C3.45730469 5.19335938 2.91460937 5.38671875 2.35546875 5.5859375 C1.64003906 5.84632813 0.92460938 6.10671875 0.1875 6.375 C-0.52019531 6.63023437 -1.22789063 6.88546875 -1.95703125 7.1484375 C-4.24773359 8.0265769 -4.24773359 8.0265769 -7 10 C-8.66614608 10.04165365 -10.33385392 10.04165365 -12 10 C-12.99 10.33 -13.98 10.66 -15 11 C-15 9.35 -15 7.7 -15 6 C-12.03 6.495 -12.03 6.495 -9 7 C-8.34 5.68 -7.68 4.36 -7 3 C-5.68 3 -4.36 3 -3 3 C-2.505 2.484375 -2.01 1.96875 -1.5 1.4375 C-1.005 0.963125 -0.51 0.48875 0 0 Z " fill="#965FCF" transform="translate(107,138)"/>
<path d="M0 0 C0.33 1.32 0.66 2.64 1 4 C-2.56430755 7.14985318 -5.40693504 9.5140084 -10 11 C-10.66 10.34 -11.32 9.68 -12 9 C-10.68 6.36 -9.36 3.72 -8 1 C-6.865625 1.020625 -5.73125 1.04125 -4.5625 1.0625 C-1.18424326 1.41577477 -1.18424326 1.41577477 0 0 Z " fill="#925FD0" transform="translate(61,52)"/>
<path d="M0 0 C2.45286296 3.67929445 2.23228878 5.47377907 2.1953125 9.85546875 C2.1924826 10.51710526 2.18965271 11.17874176 2.18673706 11.86042786 C2.17555918 13.96963737 2.15045981 16.07841925 2.125 18.1875 C2.11496707 19.61913448 2.10584176 21.05077564 2.09765625 22.48242188 C2.07562795 25.98841977 2.04111485 29.49416813 2 33 C1.67 33 1.34 33 1 33 C1 23.43 1 13.86 1 4 C-3.88214887 2.41074435 -3.88214887 2.41074435 -7 5 C-9.33199388 5.07905064 -11.66832622 5.08798769 -14 5 C-8.96630585 0.8935653 -6.64507545 -0.47464825 0 0 Z " fill="#DABAEF" transform="translate(147,28)"/>
<path d="M0 0 C0.66 0.33 1.32 0.66 2 1 C-0.9480501 5.30868861 -3.09357682 6.47355723 -8 8 C-8.33 8.99 -8.66 9.98 -9 11 C-12.13349732 12.04449911 -12.98968256 11.93423645 -16 11 C-16.33 11.66 -16.66 12.32 -17 13 C-18.32 12.67 -19.64 12.34 -21 12 C-18.62666362 10.55969281 -16.25142274 9.12269913 -13.875 7.6875 C-13.20984375 7.28337891 -12.5446875 6.87925781 -11.859375 6.46289062 C-4.08751824 1.77691817 -4.08751824 1.77691817 0 0 Z " fill="#A67BD4" transform="translate(145,162)"/>
<path d="M0 0 C0.66 0 1.32 0 2 0 C2.28875 0.78375 2.5775 1.5675 2.875 2.375 C3.84912254 5.09671632 3.84912254 5.09671632 6 7 C0.25 8 0.25 8 -2 8 C-2.33 8.66 -2.66 9.32 -3 10 C-4.98 10 -6.96 10 -9 10 C-8.8125 8.1875 -8.8125 8.1875 -8 6 C-5.625 4.4375 -5.625 4.4375 -3 3 C-2.1646875 2.1646875 -2.1646875 2.1646875 -1.3125 1.3125 C-0.879375 0.879375 -0.44625 0.44625 0 0 Z " fill="#A569DF" transform="translate(133,88)"/>
<path d="M0 0 C2 0 4 0 6 0 C4.62428558 4.12714326 2.69540457 4.48378513 -1.125 6.4375 C-2.30892658 7.05144193 -3.49252297 7.66602102 -4.67578125 8.28125 C-5.77277344 8.8484375 -6.86976562 9.415625 -8 10 C-10.35065437 11.30634104 -12.67507061 12.64829687 -15 14 C-15 13.01 -15 12.02 -15 11 C-15.66 10.67 -16.32 10.34 -17 10 C-15.865625 9.87625 -14.73125 9.7525 -13.5625 9.625 C-12.386875 9.41875 -11.21125 9.2125 -10 9 C-9.67 8.34 -9.34 7.68 -9 7 C-8.34 7 -7.68 7 -7 7 C-7 6.01 -7 5.02 -7 4 C-5.02 4 -3.04 4 -1 4 C-0.67 2.68 -0.34 1.36 0 0 Z " fill="#9B71CE" transform="translate(103,111)"/>
<path d="M0 0 C1.32 0.33 2.64 0.66 4 1 C4 1.99 4 2.98 4 4 C3.45730469 4.24234375 2.91460937 4.4846875 2.35546875 4.734375 C-3.19085547 7.30892676 -3.19085547 7.30892676 -7 12 C-8.125 6.25 -8.125 6.25 -7 4 C-7.66 3.34 -8.32 2.68 -9 2 C-5.67465243 0.89155081 -3.37817425 1.15545644 0 2 C0 1.34 0 0.68 0 0 Z " fill="#A46DDD" transform="translate(115,47)"/>
<path d="M0 0 C0.33 0.66 0.66 1.32 1 2 C2.65 1.67 4.3 1.34 6 1 C6 2.32 6 3.64 6 5 C6.99 5.33 7.98 5.66 9 6 C9 6.99 9 7.98 9 9 C9.66 9 10.32 9 11 9 C10.67 9.99 10.34 10.98 10 12 C9.01 11.67 8.02 11.34 7 11 C7 10.34 7 9.68 7 9 C5.02 9 3.04 9 1 9 C-0.4783226 6.04335481 -0.06032783 3.25770263 0 0 Z " fill="#7928C9" transform="translate(45,135)"/>
<path d="M0 0 C1.67128932 2.94381488 2.27731759 5.17383394 2.4140625 8.546875 C2.45273438 9.39121094 2.49140625 10.23554687 2.53125 11.10546875 C2.5621875 11.97816406 2.593125 12.85085937 2.625 13.75 C2.66367188 14.63816406 2.70234375 15.52632812 2.7421875 16.44140625 C2.83620873 18.6273998 2.92186143 20.81339062 3 23 C2.34 23 1.68 23 1 23 C0.92652344 21.33710937 0.92652344 21.33710937 0.8515625 19.640625 C0.77650785 18.17705935 0.70096119 16.71351888 0.625 15.25 C0.5940625 14.52039063 0.563125 13.79078125 0.53125 13.0390625 C0.3251506 9.26057344 0.08487157 6.22053332 -2 3 C-5.93075644 3.57452746 -5.93075644 3.57452746 -9 6 C-11.625 6.125 -11.625 6.125 -14 6 C-9.38622597 1.15553727 -6.93694521 -0.40020838 0 0 Z " fill="#C5A5E2" transform="translate(170,95)"/>
<path d="M0 0 C1.32 0.66 2.64 1.32 4 2 C3.01 2 2.02 2 1 2 C0.67 2.99 0.34 3.98 0 5 C-0.99 5 -1.98 5 -3 5 C-3.85294775 8.75479132 -4.18379707 12.33011494 -4.31640625 16.17578125 C-4.35830078 17.33271484 -4.40019531 18.48964844 -4.44335938 19.68164062 C-4.48267578 20.87982422 -4.52199219 22.07800781 -4.5625 23.3125 C-4.60568359 24.53001953 -4.64886719 25.74753906 -4.69335938 27.00195312 C-4.79921496 30.0011947 -4.90129726 33.00051591 -5 36 C-5.33 36 -5.66 36 -6 36 C-6.14879892 31.6768192 -6.25741862 27.35500997 -6.32958984 23.0300293 C-6.35968538 21.56036404 -6.40057406 20.09087729 -6.45263672 18.62182617 C-6.5257907 16.50394659 -6.55952214 14.38844755 -6.5859375 12.26953125 C-6.63306885 10.36071167 -6.63306885 10.36071167 -6.68115234 8.41333008 C-5.7392442 3.69332371 -3.88665014 2.68299897 0 0 Z " fill="#C2A3E4" transform="translate(74,66)"/>
<path d="M0 0 C0.66 0.99 1.32 1.98 2 3 C0.68 3 -0.64 3 -2 3 C-2.33 3.99 -2.66 4.98 -3 6 C-5.40935523 8.41498457 -7.98110359 10.40543254 -11 12 C-14 11.375 -14 11.375 -16 10 C-11.22486164 5.71884147 -5.63843769 2.96240159 0 0 Z " fill="#A574D6" transform="translate(83,32)"/>
<path d="M0 0 C0.99 0 1.98 0 3 0 C3.37713139 7.54262788 3.37713139 7.54262788 1.53125 9.78125 C-0.63976804 12.92701083 -0.56509895 16.04999119 -0.6875 19.75 C-0.72166016 20.44738281 -0.75582031 21.14476563 -0.79101562 21.86328125 C-0.87308295 23.57497108 -0.93822919 25.2874576 -1 27 C-1.33 27 -1.66 27 -2 27 C-2 20.73 -2 14.46 -2 8 C-2.99 7.67 -3.98 7.34 -5 7 C-3.68 6.67 -2.36 6.34 -1 6 C-0.67 4.02 -0.34 2.04 0 0 Z " fill="#A77AD9" transform="translate(118,18)"/>
<path d="M0 0 C0.66 0.33 1.32 0.66 2 1 C1.67 1.66 1.34 2.32 1 3 C2.32 2.67 3.64 2.34 5 2 C5 2.99 5 3.98 5 5 C2 6 2 6 -1 5 C-2.70116376 5.94011682 -4.36504293 6.94895617 -6 8 C-7.65369357 8.69822617 -9.31727014 9.37498605 -11 10 C-11.66 9.34 -12.32 8.68 -13 8 C-10.880788 6.63594382 -8.75551882 5.28368225 -6.625 3.9375 C-6.02171875 3.54755859 -5.4184375 3.15761719 -4.796875 2.75585938 C-3.23507443 1.77539568 -1.62007786 0.88083925 0 0 Z " fill="#8F61C7" transform="translate(92,136)"/>
<path d="M0 0 C-6.44783147 4.98039396 -13.4151771 9.03202582 -21 12 C-21 11.01 -21 10.02 -21 9 C-21.66 8.67 -22.32 8.34 -23 8 C-22.01 7.67 -21.02 7.34 -20 7 C-20 7.66 -20 8.32 -20 9 C-18.68 8.67 -17.36 8.34 -16 8 C-16 7.01 -16 6.02 -16 5 C-12.535 4.505 -12.535 4.505 -9 4 C-9 3.01 -9 2.02 -9 1 C-5.92677456 0.08941469 -3.19902639 -0.08886184 0 0 Z " fill="#B48BDD" transform="translate(162,165)"/>
<path d="M0 0 C0.66 0.33 1.32 0.66 2 1 C1.67 1.66 1.34 2.32 1 3 C1.66 3.33 2.32 3.66 3 4 C-7.81978173 11.11885035 -7.81978173 11.11885035 -14 11 C-17.4375 9.5625 -17.4375 9.5625 -20 8 C-19.67 7.34 -19.34 6.68 -19 6 C-17.948125 6.4640625 -17.948125 6.4640625 -16.875 6.9375 C-13.91063343 8.03302678 -11.12301892 8.56422992 -8 9 C-8 8.01 -8 7.02 -8 6 C-6.35 6 -4.7 6 -3 6 C-3 5.34 -3 4.68 -3 4 C-2.01 4 -1.02 4 0 4 C0 2.68 0 1.36 0 0 Z " fill="#AF89D9" transform="translate(132,148)"/>
<path d="M0 0 C0.66 0.33 1.32 0.66 2 1 C2 3.31 2 5.62 2 8 C1.67 6.68 1.34 5.36 1 4 C-1.64 3.67 -4.28 3.34 -7 3 C-7.99 4.485 -7.99 4.485 -9 6 C-12.125 6.6875 -12.125 6.6875 -15 7 C-13.80125164 3.40375492 -12.96359217 3.05897573 -9.75 1.25 C-8.98171875 0.80140625 -8.2134375 0.3528125 -7.421875 -0.109375 C-4.48835356 -1.18815385 -2.95742408 -0.89318177 0 0 Z " fill="#BCA1E1" transform="translate(195,108)"/>
<path d="M0 0 C2 2 2 2 2.125 5.125 C2.08375 6.07375 2.0425 7.0225 2 8 C1.01 8.33 0.02 8.66 -1 9 C-1.6496875 9.7734375 -1.6496875 9.7734375 -2.3125 10.5625 C-4.78583126 12.66941181 -6.8637368 12.20908421 -10 12 C-10.33 12.66 -10.66 13.32 -11 14 C-11.66 13.34 -12.32 12.68 -13 12 C-11.84371094 11.45472656 -11.84371094 11.45472656 -10.6640625 10.8984375 C-4.36218048 7.96715989 -4.36218048 7.96715989 -0.3125 2.625 C-0.209375 1.75875 -0.10625 0.8925 0 0 Z " fill="#B591E1" transform="translate(139,51)"/>
<path d="M0 0 C1.65 0 3.3 0 5 0 C6 3 6 3 6 6 C4.68 6.33 3.36 6.66 2 7 C2 7.99 2 8.98 2 10 C1.34 10 0.68 10 0 10 C0 8.68 0 7.36 0 6 C-0.99 6 -1.98 6 -3 6 C-3 5.01 -3 4.02 -3 3 C-2.34 3 -1.68 3 -1 3 C-0.67 2.01 -0.34 1.02 0 0 Z " fill="#A068DC" transform="translate(161,155)"/>
<path d="M0 0 C1 3 1 3 1 7 C0.401875 7.28875 -0.19625 7.5775 -0.8125 7.875 C-3.19327792 9.04742026 -3.19327792 9.04742026 -6 11 C-6.66 10.67 -7.32 10.34 -8 10 C-8.625 7.4375 -8.625 7.4375 -9 5 C-8.34 5 -7.68 5 -7 5 C-6.67 4.34 -6.34 3.68 -6 3 C-4.66923011 2.65657551 -3.33568021 2.32380126 -2 2 C-1.34 1.34 -0.68 0.68 0 0 Z " fill="#A871E4" transform="translate(182,144)"/>
<path d="M0 0 C2.97851562 0.1953125 2.97851562 0.1953125 5.95703125 0.390625 C1.63842009 3.84551393 -2.64054981 7.00623797 -8.16796875 7.890625 C-11.73235563 7.27073163 -13.43900496 5.84141445 -16.04296875 3.390625 C-15.28371094 3.50921875 -14.52445312 3.6278125 -13.7421875 3.75 C-12.25138672 3.94335938 -12.25138672 3.94335938 -10.73046875 4.140625 C-9.74433594 4.27984375 -8.75820312 4.4190625 -7.7421875 4.5625 C-6.85144531 4.50578125 -5.96070312 4.4490625 -5.04296875 4.390625 C-1.76127102 0.3367631 -1.76127102 0.3367631 0 0 Z " fill="#9770C9" transform="translate(128.04296875,180.609375)"/>
<path d="M0 0 C3.40320742 1.01176437 4.75725331 1.64843582 6.8125 4.625 C7.204375 5.40875 7.59625 6.1925 8 7 C5.69 7 3.38 7 1 7 C1 7.66 1 8.32 1 9 C-0.32 9 -1.64 9 -3 9 C-3.33 8.01 -3.66 7.02 -4 6 C-2.68 6 -1.36 6 0 6 C0 5.34 0 4.68 0 4 C-0.66 3.67 -1.32 3.34 -2 3 C-1.34 2.01 -0.68 1.02 0 0 Z " fill="#A065DC" transform="translate(112,72)"/>
<path d="M0 0 C-0.33 0.99 -0.66 1.98 -1 3 C-3.14453125 3.87890625 -3.14453125 3.87890625 -5.8125 4.5625 C-9.10965968 5.42453436 -11.99997243 6.3706144 -15 8 C-15 7.01 -15 6.02 -15 5 C-12.98828125 3.359375 -12.98828125 3.359375 -10.3125 1.75 C-9.44238281 1.20859375 -8.57226562 0.6671875 -7.67578125 0.109375 C-4.59154376 -1.16934536 -3.13996744 -0.97310703 0 0 Z " fill="#AA82D9" transform="translate(103,53)"/>
<path d="M0 0 C0.33 0 0.66 0 1 0 C1.02911321 3.0833134 1.04683682 6.16659125 1.0625 9.25 C1.07087891 10.12269531 1.07925781 10.99539062 1.08789062 11.89453125 C1.09111328 12.73886719 1.09433594 13.58320312 1.09765625 14.453125 C1.10289307 15.22817383 1.10812988 16.00322266 1.11352539 16.80175781 C1 19 1 19 0 23 C-2.97 23 -5.94 23 -9 23 C-5.86243419 19.39760962 -5.02137798 19.0042756 0 18 C0 12.06 0 6.12 0 0 Z " fill="#BE98E4" transform="translate(115,26)"/>
<path d="M0 0 C1.2065625 0.0309375 1.2065625 0.0309375 2.4375 0.0625 C0.21863042 2.28136958 -2.02902366 4.20873683 -4.5625 6.0625 C-5.5525 6.0625 -6.5425 6.0625 -7.5625 6.0625 C-7.665625 6.84625 -7.76875 7.63 -7.875 8.4375 C-8.5625 11.0625 -8.5625 11.0625 -11.5625 13.0625 C-11.5625 12.0725 -11.5625 11.0825 -11.5625 10.0625 C-12.2225 9.7325 -12.8825 9.4025 -13.5625 9.0625 C-12.5725 8.7325 -11.5825 8.4025 -10.5625 8.0625 C-10.088125 7.0725 -9.61375 6.0825 -9.125 5.0625 C-7.5625 2.0625 -7.5625 2.0625 -5.4375 1.25 C-4.81875 1.188125 -4.2 1.12625 -3.5625 1.0625 C-2.5625 0.0625 -2.5625 0.0625 0 0 Z " fill="#985AD6" transform="translate(94.5625,57.9375)"/>
<path d="M0 0 C0.99 0.99 1.98 1.98 3 3 C3.99 3.33 4.98 3.66 6 4 C4.49860488 8.20390632 1.82724957 9.89110738 -2 12 C-2.99 11.67 -3.98 11.34 -5 11 C-4.67 10.34 -4.34 9.68 -4 9 C-2.68 9 -1.36 9 0 9 C0 6.03 0 3.06 0 0 Z " fill="#A979DC" transform="translate(162,116)"/>
<path d="M0 0 C0.33 1.65 0.66 3.3 1 5 C-1.07553648 5.5534764 -2.84365964 6 -5 6 C-4.67 5.01 -4.34 4.02 -4 3 C-5.98 3.66 -7.96 4.32 -10 5 C-10.66 4.34 -11.32 3.68 -12 3 C-7.89542386 0.01485372 -5.02254631 -0.2954439 0 0 Z " fill="#BB98DF" transform="translate(124,12)"/>
<path d="M0 0 C0.92232422 0.10828125 0.92232422 0.10828125 1.86328125 0.21875 C3.07564453 0.35796875 3.07564453 0.35796875 4.3125 0.5 C5.51326172 0.63921875 5.51326172 0.63921875 6.73828125 0.78125 C9.11896555 1.04813463 9.11896555 1.04813463 12 1 C11.67 1.99 11.34 2.98 11 4 C12.32 4.33 13.64 4.66 15 5 C14.67 6.32 14.34 7.64 14 9 C7.07 5.04 7.07 5.04 0 1 C0 0.67 0 0.34 0 0 Z " fill="#9866D0" transform="translate(87,170)"/>
<path d="M0 0 C-0.33 0.66 -0.66 1.32 -1 2 C-1.66 2 -2.32 2 -3 2 C-3 2.66 -3 3.32 -3 4 C-6.63423209 6.32590854 -9.77088331 6.16265833 -14 6 C-10.31063898 1.88494347 -5.74338985 -2.42989571 0 0 Z " fill="#A57FD9" transform="translate(161,156)"/>
<path d="M0 0 C1.65 0 3.3 0 5 0 C4.67 1.65 4.34 3.3 4 5 C3.01 5 2.02 5 1 5 C0.01 5.495 0.01 5.495 -1 6 C-1.33 6.99 -1.66 7.98 -2 9 C-2.66 9 -3.32 9 -4 9 C-4 7.02 -4 5.04 -4 3 C-3.01 2.67 -2.02 2.34 -1 2 C-0.67 1.34 -0.34 0.68 0 0 Z " fill="#944FD8" transform="translate(75,68)"/>
<path d="M0 0 C4.455 0.99 4.455 0.99 9 2 C6.04012055 4.95987945 3.82571858 6.40595059 0 8 C-0.99 7.67 -1.98 7.34 -3 7 C-2.01 4.69 -1.02 2.38 0 0 Z " fill="#A478D5" transform="translate(87,64)"/>
<path d="M0 0 C0 0.66 0 1.32 0 2 C-1.74681293 2.98484108 -3.4975851 3.96266187 -5.25 4.9375 C-6.71179688 5.75541016 -6.71179688 5.75541016 -8.203125 6.58984375 C-10.53610409 7.76610835 -12.45350762 8.52101691 -15 9 C-13.54063512 5.14134031 -11.73399879 3.99679238 -8.0625 2.25 C-7.18722656 1.82203125 -6.31195313 1.3940625 -5.41015625 0.953125 C-3 0 -3 0 0 0 Z " fill="#B392DC" transform="translate(124,49)"/>
<path d="M0 0 C0.99 0.33 1.98 0.66 3 1 C4.99961564 1.03920815 7.00049364 1.04443347 9 1 C6.14693203 3.32472205 3.45925163 4.7508258 0 6 C0 6.66 0 7.32 0 8 C1.32 8.66 2.64 9.32 4 10 C1 11 1 11 -2 10 C-1.625 7.0625 -1.625 7.0625 -1 4 C-0.34 3.67 0.32 3.34 1 3 C0.67 2.01 0.34 1.02 0 0 Z " fill="#9C6DD0" transform="translate(83,148)"/>
<path d="M0 0 C0.99 0.33 1.98 0.66 3 1 C3 1.66 3 2.32 3 3 C4.65 3.33 6.3 3.66 8 4 C8 4.66 8 5.32 8 6 C1.6 7.23076923 1.6 7.23076923 -1.4375 6.0625 C-1.953125 5.711875 -2.46875 5.36125 -3 5 C-1.125 1.125 -1.125 1.125 0 0 Z " fill="#762DC8" transform="translate(59,144)"/>
<path d="M0 0 C-10.10526316 8 -10.10526316 8 -14 8 C-13.6875 6.125 -13.6875 6.125 -13 4 C-8.09626665 0.73084444 -5.94946451 -0.22450809 0 0 Z " fill="#B48FDE" transform="translate(141,67)"/>
<path d="M0 0 C0.66 0 1.32 0 2 0 C2 0.99 2 1.98 2 3 C2.99 3.66 3.98 4.32 5 5 C2.03 6.65 -0.94 8.3 -4 10 C-4 8.35 -4 6.7 -4 5 C-3.01 4.67 -2.02 4.34 -1 4 C-0.26676204 1.98491642 -0.26676204 1.98491642 0 0 Z " fill="#B18AE1" transform="translate(161,129)"/>
<path d="M0 0 C0.33 0 0.66 0 1 0 C1.02707139 2.24993359 1.04642829 4.49996095 1.0625 6.75 C1.07410156 8.00296875 1.08570312 9.2559375 1.09765625 10.546875 C1.02021027 13.28536501 0.82780815 15.41880293 0 18 C-2.64 18 -5.28 18 -8 18 C-3.25 14.125 -3.25 14.125 -1 13 C-1.01160156 12.39671875 -1.02320312 11.7934375 -1.03515625 11.171875 C-1.04417969 10.37265625 -1.05320312 9.5734375 -1.0625 8.75 C-1.07410156 7.96109375 -1.08570312 7.1721875 -1.09765625 6.359375 C-1.00385306 4.09308998 -0.63241063 2.1711105 0 0 Z " fill="#A77ECE" transform="translate(92,97)"/>
<path d="M0 0 C1 4 1 4 1 6 C-0.6396875 5.9071875 -0.6396875 5.9071875 -2.3125 5.8125 C-5.92126083 5.64402086 -5.92126083 5.64402086 -7.9375 7.5 C-8.288125 7.995 -8.63875 8.49 -9 9 C-10.32 8.34 -11.64 7.68 -13 7 C-8.71 4.69 -4.42 2.38 0 0 Z " fill="#AB83D8" transform="translate(111,72)"/>
<path d="M0 0 C1.65 0.33 3.3 0.66 5 1 C5 1.66 5 2.32 5 3 C6.32 3 7.64 3 9 3 C9.33 3.99 9.66 4.98 10 6 C8.35 5.67 6.7 5.34 5 5 C4.01 6.32 3.02 7.64 2 9 C1.01 8.67 0.02 8.34 -1 8 C-0.01 7.67 0.98 7.34 2 7 C1.2236068 3.9254644 1.2236068 3.9254644 -1 2 C-0.67 1.34 -0.34 0.68 0 0 Z " fill="#8343C7" transform="translate(107,172)"/>
<path d="M0 0 C-0.3125 1.875 -0.3125 1.875 -1 4 C-4.6441774 6.4294516 -6.71241272 6.16179575 -11 6 C-3.6 0 -3.6 0 0 0 Z " fill="#A882D8" transform="translate(87,60)"/>
<path d="M0 0 C2.475 0.99 2.475 0.99 5 2 C3.68 2.33 2.36 2.66 1 3 C1.33 3.66 1.66 4.32 2 5 C0.23043542 7.14210449 -0.87575652 7.96060573 -3.5625 8.8125 C-4.366875 8.874375 -5.17125 8.93625 -6 9 C-6.66 8.34 -7.32 7.68 -8 7 C-7.360625 6.87625 -6.72125 6.7525 -6.0625 6.625 C-5.381875 6.41875 -4.70125 6.2125 -4 6 C-3.67 5.34 -3.34 4.68 -3 4 C-2.01268258 2.65724831 -1.01405257 1.32267727 0 0 Z " fill="#9058CE" transform="translate(92,161)"/>
<path d="M0 0 C0.33 1.32 0.66 2.64 1 4 C-2.3 4.33 -5.6 4.66 -9 5 C-8.67 3.68 -8.34 2.36 -8 1 C-6.865625 1.020625 -5.73125 1.04125 -4.5625 1.0625 C-1.18424326 1.41577477 -1.18424326 1.41577477 0 0 Z " fill="#8F4BD2" transform="translate(61,52)"/>
<path d="M0 0 C2.475 0.99 2.475 0.99 5 2 C4.41196203 5.02419525 3.77321882 8.01758453 3 11 C0 9 0 9 -1 7 C-0.34 6.67 0.32 6.34 1 6 C1.65213292 3.97536745 1.65213292 3.97536745 2 2 C0.35 2.33 -1.3 2.66 -3 3 C-2.01 2.01 -1.02 1.02 0 0 Z " fill="#AB7CE3" transform="translate(104,49)"/>
<path d="M0 0 C0.66 0 1.32 0 2 0 C2.33 0.99 2.66 1.98 3 3 C2.34 3 1.68 3 1 3 C1.33 4.32 1.66 5.64 2 7 C-0.31 7.33 -2.62 7.66 -5 8 C-3.98379995 4.95139986 -3.22608429 4.13333078 -1 2 C-0.67 1.34 -0.34 0.68 0 0 Z " fill="#A163DE" transform="translate(89,31)"/>
<path d="M0 0 C1.32 0 2.64 0 4 0 C2.52041491 3.9115468 0.46042529 5.2274524 -3.125 7.25 C-4.49011719 8.03117188 -4.49011719 8.03117188 -5.8828125 8.828125 C-6.58148438 9.21484375 -7.28015625 9.6015625 -8 10 C-8 9.01 -8 8.02 -8 7 C-7.01 7 -6.02 7 -5 7 C-5 6.34 -5 5.68 -5 5 C-3.35 4.67 -1.7 4.34 0 4 C0 2.68 0 1.36 0 0 Z " fill="#C0A4E3" transform="translate(193,142)"/>
<path d="M0 0 C0.33 0 0.66 0 1 0 C1 6.93 1 13.86 1 21 C1.66 21 2.32 21 3 21 C3 21.66 3 22.32 3 23 C1.68 22.67 0.36 22.34 -1 22 C-0.67 14.74 -0.34 7.48 0 0 Z " fill="#7533C5" transform="translate(51,118)"/>
<path d="M0 0 C-0.33 1.32 -0.66 2.64 -1 4 C-1 3.34 -1 2.68 -1 2 C-1.99 2.66 -2.98 3.32 -4 4 C-6.33199388 4.07905064 -8.66832622 4.08798769 -11 4 C-10.67 3.01 -10.34 2.02 -10 1 C-6.56484998 0.37542727 -3.50935186 0 0 0 Z " fill="#BB96E0" transform="translate(162,108)"/>
<path d="M0 0 C2.0625 0.4375 2.0625 0.4375 4 1 C4 1.66 4 2.32 4 3 C2.3203125 4.32421875 2.3203125 4.32421875 0.125 5.6875 C-0.59429687 6.14511719 -1.31359375 6.60273438 -2.0546875 7.07421875 C-3.01761719 7.53248047 -3.01761719 7.53248047 -4 8 C-4.66 7.67 -5.32 7.34 -6 7 C-5.360625 6.38125 -4.72125 5.7625 -4.0625 5.125 C-1.96116416 3.17402388 -1.96116416 3.17402388 -1 1 C-0.67 0.67 -0.34 0.34 0 0 Z " fill="#BA97DE" transform="translate(180,150)"/>
<path d="M0 0 C0.66 0.33 1.32 0.66 2 1 C-0.37409996 3.62400522 -2.81364829 5.44568209 -6 7 C-8.16015625 6.578125 -8.16015625 6.578125 -10 6 C-8.3811004 4.96951963 -6.75467511 3.95085322 -5.125 2.9375 C-4.22007812 2.36902344 -3.31515625 1.80054688 -2.3828125 1.21484375 C-1.20332031 0.61349609 -1.20332031 0.61349609 0 0 Z " fill="#B493DA" transform="translate(134,139)"/>
<path d="M0 0 C0.33 0.66 0.66 1.32 1 2 C1.66 2.33 2.32 2.66 3 3 C3.33 3.99 3.66 4.98 4 6 C3.01 6.99 2.02 7.98 1 9 C-0.61949011 6.42786866 -1.04408751 5.32330841 -0.625 2.25 C-0.41875 1.5075 -0.2125 0.765 0 0 Z " fill="#904FCF" transform="translate(46,53)"/>
<path d="M0 0 C4.30764815 1.56641751 8.06171464 3.68336156 12 6 C10.68 6.33 9.36 6.66 8 7 C8 6.34 8 5.68 8 5 C6.02 5 4.04 5 2 5 C1.34 3.35 0.68 1.7 0 0 Z " fill="#A87ED3" transform="translate(104,168)"/>
<path d="M0 0 C1.65 0 3.3 0 5 0 C5.33 1.65 5.66 3.3 6 5 C5.01 5.495 5.01 5.495 4 6 C1.375 5.0625 1.375 5.0625 -1 4 C-0.67 2.68 -0.34 1.36 0 0 Z " fill="#A76DE3" transform="translate(97,26)"/>
<path d="M0 0 C0.99 0 1.98 0 3 0 C2.9375 1.8125 2.9375 1.8125 2 4 C-1.5625 5.75 -1.5625 5.75 -5 7 C-5 6.01 -5 5.02 -5 4 C-5.66 3.67 -6.32 3.34 -7 3 C-6.01 2.67 -5.02 2.34 -4 2 C-4 2.66 -4 3.32 -4 4 C-2.68 3.67 -1.36 3.34 0 3 C0 2.01 0 1.02 0 0 Z " fill="#A87DD7" transform="translate(146,170)"/>
<path d="M0 0 C1.98 0.66 3.96 1.32 6 2 C0.85714286 6.42857143 0.85714286 6.42857143 -3 7 C-3.33 6.01 -3.66 5.02 -4 4 C-2.35 4 -0.7 4 1 4 C0.67 2.68 0.34 1.36 0 0 Z " fill="#B592DE" transform="translate(166,157)"/>
<path d="M0 0 C0.66 0.33 1.32 0.66 2 1 C1.67 1.99 1.34 2.98 1 4 C-0.8125 4.66015625 -0.8125 4.66015625 -3 5.0625 C-5.14055297 5.42700873 -5.14055297 5.42700873 -7 6 C-7.33 6.66 -7.66 7.32 -8 8 C-8.66 7.34 -9.32 6.68 -10 6 C-8.3811004 4.96951963 -6.75467511 3.95085322 -5.125 2.9375 C-4.22007812 2.36902344 -3.31515625 1.80054687 -2.3828125 1.21484375 C-1.20332031 0.61349609 -1.20332031 0.61349609 0 0 Z " fill="#BC99E3" transform="translate(156,126)"/>
<path d="M0 0 C0.86325845 2.41712366 1.1132654 3.64990694 0.3125 6.125 C-1.2190732 8.31296172 -2.54765115 9.01906046 -5 10 C-3.14285714 2.42857143 -3.14285714 2.42857143 0 0 Z " fill="#9E62DD" transform="translate(137,114)"/>
<path d="M0 0 C-3.19990508 2.74277578 -6.00499382 4.6302836 -10 6 C-10 5.01 -10 4.02 -10 3 C-8.68 3 -7.36 3 -6 3 C-6 2.01 -6 1.02 -6 0 C-3.50907189 -1.24546405 -2.58919267 -0.7767578 0 0 Z " fill="#B490DA" transform="translate(137,96)"/>
<path d="M0 0 C0.721875 0.309375 1.44375 0.61875 2.1875 0.9375 C4.80307309 1.92560539 7.25118982 2.5287754 10 3 C9.67 3.66 9.34 4.32 9 5 C2.47692308 4.38461538 2.47692308 4.38461538 0.0625 2.4375 C-0.288125 1.963125 -0.63875 1.48875 -1 1 C-0.67 0.67 -0.34 0.34 0 0 Z " fill="#A37ECD" transform="translate(113,154)"/>
<path d="M0 0 C1.41791408 0.45445964 2.83428046 0.91374944 4.25 1.375 C5.43335937 1.75785156 5.43335937 1.75785156 6.640625 2.1484375 C8.86627958 2.95173667 10.90931672 3.89711662 13 5 C12.67 5.66 12.34 6.32 12 7 C7.69235185 5.43358249 3.93828536 3.31663844 0 1 C0 0.67 0 0.34 0 0 Z " fill="#B48FDA" transform="translate(100,148)"/>
<path d="M0 0 C1.65 0 3.3 0 5 0 C4.34 1.98 3.68 3.96 3 6 C0.525 5.01 0.525 5.01 -2 4 C-1.34 2.68 -0.68 1.36 0 0 Z " fill="#7C2FC9" transform="translate(67,151)"/>
<path d="M0 0 C2.64 0 5.28 0 8 0 C5.27521226 3.36591427 1.93143208 4.44226276 -2 6 C-2.66 5.34 -3.32 4.68 -4 4 C-2.68 4 -1.36 4 0 4 C0 2.68 0 1.36 0 0 Z " fill="#AC84D8" transform="translate(62,52)"/>
<path d="M0 0 C2 0 4 0 6 0 C5 3 5 3 1.9375 4.6875 C0.968125 5.120625 -0.00125 5.55375 -1 6 C-1.042721 4.33388095 -1.04063832 2.66617115 -1 1 C-0.67 0.67 -0.34 0.34 0 0 Z " fill="#A37AD5" transform="translate(103,111)"/>
<path d="M0 0 C0.33 0.66 0.66 1.32 1 2 C1.66 1.67 2.32 1.34 3 1 C4.99960012 0.960008 7.00047242 0.95653201 9 1 C6.94766315 3.2477975 5.99332739 4.0022242 3 5 C0.3125 3.0625 0.3125 3.0625 -2 1 C-1.34 0.67 -0.68 0.34 0 0 Z " fill="#9C6ED0" transform="translate(76,71)"/>
<path d="M0 0 C-0.99 0.495 -0.99 0.495 -2 1 C-2 1.66 -2 2.32 -2 3 C-4.375 3.625 -4.375 3.625 -7 4 C-7.66 3.34 -8.32 2.68 -9 2 C-5.5647952 -0.29013653 -4.014669 -0.17842973 0 0 Z M-9 4 C-8.01 4.495 -8.01 4.495 -7 5 C-7.99 5.495 -7.99 5.495 -9 6 C-9 5.34 -9 4.68 -9 4 Z " fill="#B58DDF" transform="translate(184,114)"/>
<path d="M0 0 C0.94875 0.04125 1.8975 0.0825 2.875 0.125 C1.885 0.455 0.895 0.785 -0.125 1.125 C-0.125 2.115 -0.125 3.105 -0.125 4.125 C-1.775 4.455 -3.425 4.785 -5.125 5.125 C-5.125 0.85616396 -4.22482433 0.16899297 0 0 Z " fill="#9057CF" transform="translate(70.125,47.875)"/>
<path d="M0 0 C0.66 0.33 1.32 0.66 2 1 C1.67 1.66 1.34 2.32 1 3 C2.32 2.67 3.64 2.34 5 2 C5 2.99 5 3.98 5 5 C4.01 5.33 3.02 5.66 2 6 C-0.6875 4.0625 -0.6875 4.0625 -3 2 C-2.01 1.34 -1.02 0.68 0 0 Z " fill="#9C63D8" transform="translate(92,136)"/>
<path d="M0 0 C0 0.66 0 1.32 0 2 C-0.99 2 -1.98 2 -3 2 C-3 2.66 -3 3.32 -3 4 C-5.875 4.125 -5.875 4.125 -9 4 C-9.66 3.34 -10.32 2.68 -11 2 C-9.5422647 1.664061 -8.08378894 1.33133376 -6.625 1 C-5.40683594 0.7215625 -5.40683594 0.7215625 -4.1640625 0.4375 C-2 0 -2 0 0 0 Z " fill="#985FD1" transform="translate(119,99)"/>
<path d="M0 0 C0.66 0 1.32 0 2 0 C2 0.66 2 1.32 2 2 C2.66 2.33 3.32 2.66 4 3 C-2.75 7 -2.75 7 -5 7 C-5 6.34 -5 5.68 -5 5 C-4.01 5 -3.02 5 -2 5 C-2 4.34 -2 3.68 -2 3 C-1.34 3 -0.68 3 0 3 C0 2.01 0 1.02 0 0 Z " fill="#B79CDF" transform="translate(80,42)"/>
<path d="M0 0 C0.66 0.99 1.32 1.98 2 3 C0.68 3 -0.64 3 -2 3 C-2 3.66 -2 4.32 -2 5 C-4.31 5.33 -6.62 5.66 -9 6 C-7.71502463 3.43004926 -6.50087627 3.09565537 -3.9375 1.875 C-3.20402344 1.52179687 -2.47054687 1.16859375 -1.71484375 0.8046875 C-1.14894531 0.53914063 -0.58304688 0.27359375 0 0 Z " fill="#B591DA" transform="translate(83,32)"/>
<path d="M0 0 C0 0.66 0 1.32 0 2 C-7.42857143 4.42857143 -7.42857143 4.42857143 -11 3 C-10.01 3 -9.02 3 -8 3 C-8 2.34 -8 1.68 -8 1 C-3.375 -1.125 -3.375 -1.125 0 0 Z " fill="#B994DD" transform="translate(95,28)"/>
<path d="M0 0 C1.98 0 3.96 0 6 0 C6.33 0.99 6.66 1.98 7 3 C7.99 3.33 8.98 3.66 10 4 C9.67 4.66 9.34 5.32 9 6 C6.03 4.35 3.06 2.7 0 1 C0 0.67 0 0.34 0 0 Z " fill="#A27AD1" transform="translate(63,156)"/>
<path d="M0 0 C0.66 0.33 1.32 0.66 2 1 C1.5 2.9375 1.5 2.9375 0 5 C-2.69658452 5.68790422 -5.2017019 5.81946464 -8 6 C-5.63404067 3.38499232 -3.13950774 1.61000397 0 0 Z " fill="#B99AE3" transform="translate(172,146)"/>
<path d="M0 0 C0.99 0.99 1.98 1.98 3 3 C2.6875 6.1875 2.6875 6.1875 2 9 C1.34 9 0.68 9 0 9 C0 6.03 0 3.06 0 0 Z " fill="#A276CD" transform="translate(162,116)"/>
<path d="M0 0 C-1.45537568 0.83848804 -2.91440373 1.67063934 -4.375 2.5 C-5.59316406 3.19609375 -5.59316406 3.19609375 -6.8359375 3.90625 C-9 5 -9 5 -11 5 C-10.67 4.01 -10.34 3.02 -10 2 C-8.68 2 -7.36 2 -6 2 C-6 1.34 -6 0.68 -6 0 C-3 -1 -3 -1 0 0 Z " fill="#B295D6" transform="translate(120,80)"/>
<path d="M0 0 C1.65 0 3.3 0 5 0 C5 0.66 5 1.32 5 2 C0.61538462 5 0.61538462 5 -2 5 C-1.34 3.35 -0.68 1.7 0 0 Z " fill="#BB9BDD" transform="translate(131,42)"/>
<path d="M0 0 C1.65 0.33 3.3 0.66 5 1 C5.33 2.32 5.66 3.64 6 5 C4.02 4.34 2.04 3.68 0 3 C0 2.01 0 1.02 0 0 Z " fill="#9965CA" transform="translate(49,146)"/>
<path d="M0 0 C2.64 0.33 5.28 0.66 8 1 C8 1.99 8 2.98 8 4 C4.64404172 3.40072174 2.62198774 2.15377564 0 0 Z " fill="#A67BD2" transform="translate(87,170)"/>
<path d="M0 0 C1.65 0.33 3.3 0.66 5 1 C4.67 1.66 4.34 2.32 4 3 C1.67843403 3.40729228 -0.6568787 3.74438677 -3 4 C-2.01 2.68 -1.02 1.36 0 0 Z " fill="#A478D3" transform="translate(175,145)"/>
<path d="M0 0 C1.32 0 2.64 0 4 0 C3.67 1.32 3.34 2.64 3 4 C1.68 4.33 0.36 4.66 -1 5 C-0.67 3.35 -0.34 1.7 0 0 Z " fill="#9563CE" transform="translate(134,146)"/>
<path d="M0 0 C0.33 1.32 0.66 2.64 1 4 C0.01 4 -0.98 4 -2 4 C-1.67 3.34 -1.34 2.68 -1 2 C-1.66 2 -2.32 2 -3 2 C-3.33 2.99 -3.66 3.98 -4 5 C-4.99 4.34 -5.98 3.68 -7 3 C-2.25 0 -2.25 0 0 0 Z " fill="#B085DB" transform="translate(124,119)"/>
<path d="M0 0 C-0.66 1.65 -1.32 3.3 -2 5 C-4.475 4.01 -4.475 4.01 -7 3 C-3.375 0 -3.375 0 0 0 Z " fill="#B18EDB" transform="translate(124,66)"/>
<path d="M0 0 C0.99 0.33 1.98 0.66 3 1 C0.63707344 3.52588702 -0.66462511 4.88820837 -4 6 C-4.33 5.01 -4.66 4.02 -5 3 C-3.35 3 -1.7 3 0 3 C0 2.01 0 1.02 0 0 Z " fill="#BFA0E2" transform="translate(145,61)"/>
<path d="M0 0 C0.33 0.99 0.66 1.98 1 3 C1.66 3.33 2.32 3.66 3 4 C2.67 4.66 2.34 5.32 2 6 C1.01 6 0.02 6 -1 6 C-1 5.01 -1 4.02 -1 3 C-1.99 2.67 -2.98 2.34 -4 2 C-2.68 1.34 -1.36 0.68 0 0 Z " fill="#A678DA" transform="translate(65,42)"/>
<path d="M0 0 C0.66 0.99 1.32 1.98 2 3 C1.67 3.66 1.34 4.32 1 5 C-1.97 4.505 -1.97 4.505 -5 4 C-3 1 -3 1 0 0 Z " fill="#B693DF" transform="translate(111,16)"/>
<path d="M0 0 C0.66 0.33 1.32 0.66 2 1 C0.8125 3 0.8125 3 -1 5 C-3.6875 5.25 -3.6875 5.25 -6 5 C-4.06745228 2.9754262 -2.36841312 1.57894208 0 0 Z " fill="#B58BDB" transform="translate(144,133)"/>
<path d="M0 0 C2.31 0.33 4.62 0.66 7 1 C4.61426621 2.89213369 2.92824652 4.02391783 0 5 C0 3.35 0 1.7 0 0 Z " fill="#B185DD" transform="translate(127,124)"/>
<path d="M0 0 C0.66 0.33 1.32 0.66 2 1 C2 2.32 2 3.64 2 5 C0.68 5 -0.64 5 -2 5 C-2.33 4.01 -2.66 3.02 -3 2 C-2.01 1.34 -1.02 0.68 0 0 Z " fill="#B387DD" transform="translate(115,69)"/>
<path d="M0 0 C1.32 0.33 2.64 0.66 4 1 C1.31158141 3.25245881 -0.64641875 4.88213958 -4 6 C-3.67 5.01 -3.34 4.02 -3 3 C-2.01 3 -1.02 3 0 3 C0 2.01 0 1.02 0 0 Z " fill="#AE92DB" transform="translate(88,38)"/>
<path d="M0 0 C-3.96 1.98 -3.96 1.98 -8 4 C-7.67 2.68 -7.34 1.36 -7 0 C-4 -1 -4 -1 0 0 Z " fill="#B897DE" transform="translate(101,35)"/>
</svg>
